<svg width="112" height="112" viewBox="0 0 112 112" fill="none" xmlns="http://www.w3.org/2000/svg">
<path d="M9.38232 74.4823L30.5348 61.2644L35.1553 85.5571L9.38232 74.4823Z" fill="#3B5998"/>
<path d="M81.0044 62.1417L101.906 71.6397L88.4829 91.1129L81.0044 62.1417Z" fill="#3B5998"/>
<path d="M83.3967 83.3967C98.7497 68.0438 98.7497 43.1518 83.3967 27.7989C68.0438 12.446 43.1518 12.4459 27.7989 27.7989C12.446 43.1518 12.446 68.0438 27.7989 83.3967C43.1518 98.7496 68.0438 98.7496 83.3967 83.3967Z" fill="url(#paint0_linear_764_2)"/>
<path d="M80.0927 80.0926C93.6209 66.5645 93.6209 44.6311 80.0927 31.1029C66.5646 17.5748 44.6311 17.5748 31.103 31.1029C17.5749 44.6311 17.5749 66.5645 31.103 80.0926C44.6311 93.6208 66.5646 93.6208 80.0927 80.0926Z" fill="url(#paint1_linear_764_2)"/>
<path d="M70.0937 64.625C70.2483 67.9276 69.3246 70.6504 67.3187 72.7915C65.3148 74.9346 62.6326 76.2912 59.2759 76.8632L59.5078 81.8141L55.7376 81.9919L55.5077 77.097C52.3462 77.0197 49.604 76.2661 47.2812 74.8322C44.9585 73.4002 43.2463 71.3944 42.1487 68.8146L48.661 64.6192C50.0021 67.5643 52.1645 69.1721 55.1482 69.4445L54.6902 59.7108H54.6342L54.5182 59.6625C53.1829 59.2374 52.093 58.8547 51.2505 58.5185C50.4079 58.1823 49.4147 57.6837 48.2765 57.0228C47.1363 56.3638 46.2397 55.6623 45.5846 54.9222C44.9295 54.1821 44.3381 53.2236 43.8144 52.0448C43.2888 50.868 42.9932 49.5655 42.9255 48.1394C42.7709 44.8387 43.7236 42.1449 45.7875 40.054C47.8513 37.965 50.4505 36.6954 53.5868 36.2471L53.3568 31.3522L57.127 31.1744L57.3628 36.1814C62.4915 36.5408 66.2172 39.0182 68.54 43.6078L62.192 47.7413C61.1852 45.5344 59.6953 44.232 57.7222 43.8339L58.1648 53.2313C61.7185 54.4546 64.1148 55.4537 65.3554 56.2208C68.341 58.1494 69.9198 60.9514 70.0918 64.627L70.0937 64.625ZM50.6398 47.834C50.6785 48.6592 50.9742 49.3684 51.5288 49.9636C52.0834 50.5568 53.0129 51.1443 54.3173 51.7202L53.9462 43.8435C52.8312 44.1218 51.9887 44.6127 51.4225 45.3161C50.8524 46.0195 50.5935 46.8581 50.6379 47.834H50.6398ZM58.9165 69.1566C61.2934 68.5189 62.4316 67.1488 62.333 65.0482C62.2886 64.111 61.962 63.3361 61.3494 62.7254C60.7368 62.1148 59.8015 61.5582 58.5358 61.0519L58.9165 69.1547V69.1566Z" fill="#E07500"/>
<g style="mix-blend-mode:screen" opacity="0.48">
<path d="M60.1998 21.2686C58.1708 20.9981 56.0914 20.8956 53.9735 20.9961C50.9376 21.1391 48.0119 21.6705 45.2408 22.5382L21.7133 48.3866C21.1104 51.2272 20.8553 54.1897 20.9983 57.2255C21.0969 59.3435 21.3945 61.4035 21.8544 63.3997L60.2017 21.2705L60.1998 21.2686Z" fill="url(#paint2_linear_764_2)"/>
<path d="M66.434 22.6986L23.8623 69.4695C26.1522 74.6968 29.6809 79.238 34.0733 82.7261L80.5891 31.6226C76.7049 27.5761 71.8526 24.488 66.434 22.6986Z" fill="url(#paint3_linear_764_2)"/>
</g>
<path d="M99.1365 70.747L10.8394 74.4843C7.90786 74.608 5.59473 77.0216 5.59473 79.9551V95.8494C5.59473 99.4438 8.43348 102.397 12.024 102.538L99.1501 105.96C101.877 106.066 104.143 103.886 104.143 101.158V75.5491C104.143 72.8147 101.865 70.633 99.1346 70.7489L99.1365 70.747Z" fill="#3B5998"/>
<path d="M21.06 93.4047C19.4406 93.4047 18.1034 92.8675 17.0482 91.7912C15.9931 90.7148 15.4656 89.3872 15.4656 87.8084C15.4656 86.2296 15.9931 84.8904 17.0482 83.8179C18.1034 82.7473 19.4406 82.212 21.06 82.212C22.0339 82.212 22.9325 82.4401 23.7577 82.8961C24.5828 83.3522 25.2263 83.9706 25.6863 84.7493L23.8562 85.8102C23.5896 85.3291 23.2108 84.9522 22.718 84.6798C22.2253 84.4073 21.6726 84.272 21.0581 84.272C20.0126 84.272 19.1701 84.6005 18.5285 85.2556C17.8889 85.9127 17.5681 86.7629 17.5681 87.8084C17.5681 88.8538 17.8889 89.6886 18.5285 90.3457C19.1681 91.0008 20.0126 91.3293 21.0581 91.3293C21.6726 91.3293 22.2291 91.194 22.7258 90.9216C23.2224 90.651 23.5992 90.278 23.8562 89.8065L25.6863 90.8674C25.2244 91.6462 24.5848 92.2646 23.7654 92.7207C22.9461 93.1767 22.0436 93.4047 21.06 93.4047Z" fill="white"/>
<path d="M33.8664 93.1902L33.221 91.2539H28.931L28.2855 93.1902H25.9956L29.7619 82.4285H32.39L36.1718 93.1902H33.8664ZM29.6073 89.2693H32.5601L31.0837 84.873L29.6073 89.2693Z" fill="white"/>
<path d="M40.6474 93.4049C39.5807 93.4049 38.684 93.1672 37.9574 92.6899C37.2289 92.2145 36.7168 91.5652 36.4192 90.7458L38.2337 89.6849C38.6531 90.7806 39.4782 91.3294 40.7092 91.3294C41.3044 91.3294 41.7392 91.2212 42.0155 91.0067C42.2919 90.7922 42.431 90.5198 42.431 90.1932C42.431 89.8144 42.2629 89.5187 41.9228 89.3081C41.5846 89.0975 40.9797 88.8695 40.1082 88.624C39.627 88.481 39.2193 88.338 38.8869 88.1931C38.5545 88.0501 38.2202 87.8568 37.8878 87.6172C37.5555 87.3757 37.3004 87.0723 37.1265 86.7032C36.9525 86.3341 36.8656 85.9032 36.8656 85.4123C36.8656 84.4384 37.2115 83.6634 37.9033 83.0837C38.5951 82.504 39.428 82.2141 40.4019 82.2141C41.2735 82.2141 42.0387 82.4267 42.6996 82.8518C43.3605 83.277 43.8765 83.8683 44.2456 84.6277L42.4619 85.6577C42.031 84.7359 41.345 84.2741 40.4019 84.2741C39.9614 84.2741 39.6154 84.3746 39.3642 84.5736C39.113 84.7727 38.9874 85.0316 38.9874 85.3505C38.9874 85.6887 39.1285 85.9631 39.4106 86.1737C39.6927 86.3843 40.2338 86.6124 41.0319 86.8578C41.3604 86.9602 41.6078 87.0394 41.7778 87.0955C41.946 87.1515 42.1779 87.2385 42.4697 87.3563C42.7615 87.4742 42.9876 87.5844 43.146 87.6868C43.3045 87.7892 43.4861 87.9283 43.691 88.1023C43.8958 88.2762 44.0523 88.4559 44.1606 88.6414C44.2688 88.825 44.3596 89.0492 44.4369 89.31C44.5142 89.5709 44.5528 89.8569 44.5528 90.1642C44.5528 91.1594 44.1915 91.9478 43.4687 92.5314C42.746 93.115 41.8049 93.4088 40.6474 93.4088V93.4049Z" fill="white"/>
<path d="M51.9772 82.4285H54.0836V93.1902H51.9772V88.7321H47.9809V93.1902H45.8591V82.4285H47.9809V86.703H51.9772V82.4285Z" fill="white"/>
<path d="M62.5844 87.6093C63.5275 88.1524 63.999 88.9736 63.999 90.0693C63.999 90.9815 63.6763 91.7293 63.0308 92.3129C62.3854 92.8965 61.5912 93.1902 60.6481 93.1902H56.0818V82.4285H60.3254C61.2472 82.4285 62.024 82.7125 62.654 83.2807C63.284 83.8488 63.599 84.5754 63.599 85.4566C63.599 86.3378 63.2608 87.0663 62.5844 87.6093ZM60.3235 84.4112H58.2017V86.7784H60.3235C60.652 86.7784 60.9264 86.6663 61.1467 86.4402C61.367 86.2141 61.4772 85.932 61.4772 85.5938C61.4772 85.2556 61.3689 84.9735 61.1544 84.7493C60.9399 84.5232 60.6636 84.4112 60.3235 84.4112ZM60.6462 91.2056C61.0056 91.2056 61.3013 91.0858 61.5371 90.8442C61.7728 90.6046 61.8907 90.2993 61.8907 89.9302C61.8907 89.5611 61.7728 89.2712 61.5371 89.0316C61.3013 88.792 61.0037 88.6703 60.6462 88.6703H58.2017V91.2075H60.6462V91.2056Z" fill="white"/>
<path d="M72.3008 93.1902L71.6553 91.2539H67.3653L66.7199 93.1902H64.4299L68.1963 82.4285H70.8244L74.6062 93.1902H72.3008ZM68.0417 89.2693H70.9925L69.5161 84.873L68.0397 89.2693H68.0417Z" fill="white"/>
<path d="M80.3725 93.4047C78.7531 93.4047 77.4158 92.8675 76.3607 91.7912C75.3056 90.7148 74.7761 89.3872 74.7761 87.8084C74.7761 86.2296 75.3037 84.8904 76.3607 83.8179C77.4158 82.7473 78.7531 82.212 80.3725 82.212C81.3464 82.212 82.245 82.4401 83.0702 82.8961C83.8953 83.3522 84.5388 83.9706 84.9987 84.7493L83.1687 85.8102C82.902 85.3291 82.5233 84.9522 82.0305 84.6798C81.5377 84.4073 80.9851 84.272 80.3705 84.272C79.3251 84.272 78.4825 84.6005 77.841 85.2556C77.1994 85.9127 76.8806 86.7629 76.8806 87.8084C76.8806 88.8538 77.2013 89.6886 77.841 90.3457C78.4806 91.0008 79.3251 91.3293 80.3705 91.3293C80.9851 91.3293 81.5416 91.194 82.0382 90.9216C82.5349 90.651 82.9117 90.278 83.1687 89.8065L84.9987 90.8674C84.5369 91.6462 83.8972 92.2646 83.0779 92.7207C82.2585 93.1767 81.3561 93.4047 80.3725 93.4047Z" fill="white"/>
<path d="M94.7171 93.1902H92.2726L88.4289 88.1485V93.1902H86.3071V82.4285H88.4289V87.1784L92.118 82.4285H94.5625L90.5798 87.6557L94.7152 93.1902H94.7171Z" fill="white"/>
<defs>
<linearGradient id="paint0_linear_764_2" x1="28.8329" y1="4.94713" x2="88.2195" y2="117.295" gradientUnits="userSpaceOnUse">
<stop stop-color="#F3C531"/>
<stop offset="1" stop-color="#E07500"/>
</linearGradient>
<linearGradient id="paint1_linear_764_2" x1="46.0912" y1="42.5395" x2="107.021" y2="126.143" gradientUnits="userSpaceOnUse">
<stop stop-color="#F3C531"/>
<stop offset="0.65" stop-color="#E07500"/>
</linearGradient>
<linearGradient id="paint2_linear_764_2" x1="61.4676" y1="14.8321" x2="13.4626" y2="63.202" gradientUnits="userSpaceOnUse">
<stop stop-color="#FFDA8F"/>
<stop offset="1" stop-color="#FFDA8F"/>
</linearGradient>
<linearGradient id="paint3_linear_764_2" x1="74.7588" y1="28.0205" x2="26.7519" y2="76.3924" gradientUnits="userSpaceOnUse">
<stop stop-color="#FFDA8F"/>
<stop offset="1" stop-color="#FFDA8F"/>
</linearGradient>
</defs>
</svg>
