<svg width="55" height="55" viewBox="0 0 55 55" fill="none" xmlns="http://www.w3.org/2000/svg">
<path d="M6.64062 9.58033C19.4246 -5.2971 43.1295 -2.36149 51.9879 15.0184C45.7489 15.0219 35.983 15.015 30.6927 15.0184C26.8565 15.0184 24.378 14.9325 21.6968 16.3453C18.5446 18.0056 16.1625 21.0821 15.334 24.6984L6.64062 9.58033Z" fill="#F44336"/>
<path d="M18.3521 27.4999C18.3521 32.5427 22.453 36.6436 27.4923 36.6436C32.5317 36.6436 36.6326 32.5427 36.6326 27.4999C36.6326 22.4571 32.5317 18.3562 27.4923 18.3562C22.4495 18.3528 18.3521 22.4571 18.3521 27.4999Z" fill="#2196F3"/>
<path d="M31.0363 39.4692C25.9076 40.992 19.9023 39.3042 16.6161 33.6255C14.1067 29.2943 7.47239 17.7409 4.46116 12.485C-6.09879 28.6687 3.00023 50.7201 22.1676 54.4842L31.0363 39.4692Z" fill="#4CAF50"/>
<path d="M35.9795 18.3528C40.2523 22.3265 41.1839 28.7615 38.2895 33.7493C36.1102 37.5099 29.1493 49.2558 25.7771 54.9414C45.5254 56.1582 59.9216 36.8052 53.4179 18.3494L35.9795 18.3528Z" fill="#FFC107"/>
</svg>
