<svg width="57" height="55" viewBox="0 0 57 55" fill="none" xmlns="http://www.w3.org/2000/svg">
<path d="M28.296 0C42.9745 0 54.8234 11.8489 54.8234 26.5274C54.8234 41.2059 42.9743 53.0549 28.296 53.0549C13.6177 53.0549 1.76855 41.2059 1.76855 26.5274C1.76855 11.8489 13.6175 0 28.296 0Z" fill="#2394BC"/>
<path d="M32.8939 54.4694C46.3344 52.1704 56.5918 40.6752 56.5918 26.5272L56.415 26.881C56.7687 24.2281 56.7687 21.7523 56.2382 19.807C56.0614 21.3985 55.8845 22.2828 55.5307 22.6366C55.5307 22.4598 55.5307 20.868 55.0002 18.7459C54.8234 17.1543 54.4697 15.5626 53.9391 14.1478C54.1159 14.8551 54.1159 15.3858 54.1159 15.9163C51.9938 10.4339 47.0419 3.53688 34.4857 3.71366C34.4857 3.71366 38.9069 4.24418 40.8522 7.25056C40.8522 7.25056 38.7301 6.72003 37.1383 7.60431C39.0837 8.31161 40.8522 9.19588 42.267 10.0802H42.4438C42.7975 10.2569 43.1511 10.6107 43.5048 10.7875C46.1576 12.7328 48.6335 15.3856 48.4565 18.7457C47.7492 17.6847 47.0417 16.9772 45.9807 16.8004C47.2187 21.5753 47.2187 25.466 46.3344 28.4725C45.6271 26.3504 45.0964 25.2892 44.5659 24.7587C45.2732 31.1252 44.3891 35.7233 41.5595 38.7297C42.09 36.9611 42.2668 35.3696 42.2668 34.1315C38.9067 39.0832 35.1928 41.7361 30.9484 41.9128C29.3568 41.9128 27.7651 41.7361 26.1735 41.2055C24.0514 40.4982 22.1059 39.2602 20.3375 37.4917C22.9903 37.6684 25.643 37.3149 27.7653 36.0769L31.3022 33.7778C31.8327 33.601 32.1864 33.601 32.717 33.7778C33.6012 33.601 33.955 33.2473 33.6012 32.363C33.2475 31.8325 32.5402 31.3019 31.6559 30.7714C29.8874 29.8871 27.942 30.0641 25.9967 31.3019C24.0514 32.363 22.2828 32.363 20.5143 31.1252C19.4532 30.4179 18.2152 29.3566 17.1542 27.9418L16.8004 27.2345C16.6236 28.8261 16.8004 30.5946 17.5077 33.0705C16.8004 30.7714 16.6235 28.8261 16.8004 27.2345C16.8004 25.9965 17.3309 25.1124 18.392 25.1124H18.0383H18.5688C19.8068 25.2892 21.0446 25.4662 22.6364 25.9967C22.8132 24.5819 22.6364 22.9903 21.5753 21.3985C22.9901 19.9837 24.2282 19.0995 25.2892 18.569C25.8197 18.3922 25.9965 17.8616 26.1735 17.3309C26.5272 16.6236 26.3503 16.2699 25.9967 15.9161C24.9357 15.9161 24.0514 15.9161 22.9903 15.7394C22.6366 15.5626 22.1061 15.2088 21.3988 14.6783L19.8072 13.0867L19.2767 12.733L19.0999 12.5562L19.2767 12.3794C19.4534 11.1414 19.8072 10.0804 20.3377 9.19608L20.5145 9.0193C21.045 8.13503 22.1061 7.25075 23.5209 6.1897C20.6913 6.54345 18.2154 7.78128 15.9163 9.90357C14.1478 9.37305 11.8487 9.54982 9.37287 10.6109C7.7813 9.90357 6.72005 7.78128 6.18953 4.24438C4.06762 6.1897 3.18335 9.90357 3.18335 15.0322L2.65282 15.9165L2.47604 16.0933C2.1223 16.6238 1.76874 17.3313 1.23802 18.2154C0.53072 19.6302 0.176971 20.6912 0.176971 21.7523V22.106C0.176971 22.2828 0.176971 22.6366 0.176971 22.8133L1.76855 21.5753C1.23802 23.1669 0.707497 24.7587 0.530525 26.3503V27.0576L0 26.5274C0 32.5404 1.94532 38.1996 5.12867 42.7975L5.30545 42.9743L5.48222 43.1511C7.7813 46.3344 10.7877 48.987 14.3248 51.1093C16.8006 52.5241 19.4534 53.5852 22.283 54.2927L22.8136 54.4694C23.3441 54.6462 24.0516 54.6462 24.5821 54.8232C25.1126 54.8232 25.4664 55 25.9969 55H26.5274H27.4117H28.296H29.0033H30.2413C30.9486 55 31.6561 54.8232 32.3634 54.8232C32.3634 54.4695 32.8939 54.4694 32.8939 54.4694Z" fill="#EC8840"/>
</svg>
