<svg width="39" height="41" viewBox="0 0 39 41" fill="none" xmlns="http://www.w3.org/2000/svg">
<path d="M37.7146 6.08024C37.6666 6.0482 37.6188 6.0163 37.5709 5.98426C37.6723 5.89095 37.7742 5.79803 37.8766 5.70578C37.9466 5.64277 38.071 5.47301 37.947 5.39778C37.1335 4.90447 36.3202 4.41104 35.5067 3.91773C34.2112 3.13198 32.9156 2.34623 31.6201 1.56048C31.3241 1.38089 31.028 1.2013 30.732 1.02171C30.6152 0.950862 30.4084 1.06917 30.3312 1.15066C28.6262 2.9484 27.2424 5.04897 25.9665 7.17279C24.4495 9.6982 23.0932 12.3221 21.8125 14.9778C21.3625 15.9108 20.9226 16.8488 20.4913 17.7907C19.2959 20.0318 18.1458 22.2977 17.0423 24.5868C16.1259 26.4877 15.2419 28.4047 14.3899 30.3361C13.3074 28.2337 12.0238 26.229 10.6104 24.3464C10.4828 24.1764 10.3544 24.0067 10.2216 23.8408C10.1531 23.7553 10.0099 23.798 9.92948 23.8387C9.8218 23.8932 9.71412 23.9478 9.60645 24.0023C9.60199 23.9968 9.59754 23.9913 9.59295 23.9858C9.49916 23.8718 9.34642 23.7625 9.19919 23.7384C9.15321 23.7308 9.11627 23.7358 9.09426 23.7511C9.07893 23.753 9.06544 23.7576 9.05418 23.7651C8.03583 24.4533 7.01748 25.1414 5.99914 25.8295C4.6034 26.5366 3.20753 27.2437 1.81179 27.9507C1.71734 27.9005 1.62289 27.8504 1.52819 27.8008C1.32515 27.6943 0.833394 28.1203 1.05713 28.2377C1.15787 28.2905 1.25834 28.3438 1.35881 28.3974C1.37846 28.4585 1.43583 28.4754 1.49793 28.4718C3.49558 29.5449 5.42067 30.7555 7.25563 32.0951C7.5915 32.3402 7.92422 32.5897 8.25393 32.8433C9.73351 34.1497 11.1383 35.5459 12.4846 36.9897C13.3197 37.8853 14.1323 38.8019 14.9302 39.7318C14.9841 39.7948 15.374 40.1126 15.449 39.9591C15.4844 39.8867 15.52 39.8143 15.5555 39.742C15.5896 39.7814 15.6236 39.8206 15.6574 39.8601C15.804 40.0306 16.1113 39.778 16.1882 39.6434C17.3576 37.5943 18.4553 35.5037 19.5487 33.4122C20.7725 31.0713 21.9875 28.7256 23.24 26.4002C23.7651 25.4254 24.2966 24.4543 24.8372 23.4881C25.719 22.1442 26.6214 20.8142 27.5447 19.4994C29.066 17.3332 30.6434 15.2074 32.2762 13.1265C33.8894 11.0706 35.557 9.05828 37.279 7.09529C37.4957 6.84831 37.7133 6.60212 37.9316 6.3566C38.0036 6.27578 37.7473 6.10244 37.7147 6.08077L37.7146 6.08024ZM27.4584 18.2068C27.0248 18.9031 26.5994 19.6044 26.1806 20.31C25.1261 21.8416 24.0993 23.3929 23.101 24.9628C21.6796 27.1982 20.3157 29.4712 19.0122 31.7792C17.7503 34.0134 16.5452 36.2805 15.4002 38.5788C14.0213 37.0502 12.5501 35.6087 10.9973 34.2622C9.14482 32.6559 7.17586 31.1876 5.11139 29.874C4.51236 29.4927 3.90507 29.125 3.29045 28.7704C3.19403 28.7088 3.09736 28.6479 3.00043 28.5873C4.65527 27.4691 6.31012 26.3508 7.96509 25.2326C8.49313 24.9651 9.02117 24.6976 9.5492 24.4302C10.3574 25.4756 11.0838 26.5871 11.7756 27.7136C12.4113 28.7487 13.0173 29.8031 13.5952 30.8725C13.7062 31.0779 13.8169 31.2837 13.924 31.4912C13.9575 31.556 14.2409 31.7976 14.3913 31.8091C14.4594 31.9526 14.5266 32.0965 14.5926 32.241C14.6371 32.3385 14.8241 32.2728 14.8847 32.2432C15.0018 32.1857 15.1011 32.0906 15.1462 31.9659C15.4315 31.1775 15.7304 30.3941 16.031 29.6117C16.7874 27.6435 17.5795 25.6714 18.3967 23.7161C18.7747 22.8115 19.1587 21.9094 19.5493 21.0102C19.7869 20.5453 20.0265 20.0815 20.268 19.6187C22.3325 15.6633 24.5377 11.7836 26.8781 7.98992C28.1634 5.90637 29.4899 3.84914 30.8554 1.81876C31.0429 1.93255 31.2305 2.04634 31.418 2.15999C31.9341 2.50455 32.4501 2.84911 32.9662 3.19366C34.2212 4.03152 35.4762 4.86951 36.7312 5.70737C36.8503 5.78686 36.9695 5.86649 37.0886 5.94598C35.3137 7.5995 33.6999 9.42835 32.2041 11.3431C30.4921 13.5342 28.9303 15.8437 27.4587 18.2065L27.4584 18.2068ZM37.3149 5.73701C37.2988 5.75177 37.2828 5.76652 37.2667 5.78128C36.8661 5.51382 36.4654 5.24637 36.0648 4.97891C36.2392 5.08459 36.4134 5.19027 36.5878 5.29608C36.8301 5.44311 37.0726 5.59013 37.3149 5.73715V5.73701ZM29.4635 2.72109C27.6938 5.39857 25.9925 8.12258 24.3621 10.8897C24.8571 9.95582 25.3671 9.03036 25.8955 8.1158C26.9722 6.25265 28.1207 4.40439 29.4635 2.72109ZM16.1953 27.9162C16.0271 28.3422 15.8602 28.7688 15.6946 29.1957C15.4396 29.8536 15.1876 30.5127 14.9399 31.1733C14.9207 31.2243 14.9011 31.2753 14.8813 31.3262C14.844 31.2479 14.8062 31.1698 14.7684 31.0917C15.2343 30.0287 15.7101 28.97 16.1954 27.916L16.1953 27.9162ZM3.63981 27.4238C3.22456 27.7044 2.80917 27.985 2.39392 28.2656C2.32725 28.2291 2.26057 28.1925 2.1939 28.1562C2.67582 27.912 3.15788 27.668 3.63981 27.4238ZM15.0089 39.3705C13.8989 38.0916 12.7578 36.8395 11.5716 35.6329C12.0026 36.0288 12.4269 36.4323 12.8437 36.8436C13.6172 37.6068 14.3656 38.3958 15.0883 39.2086C15.0617 39.2625 15.0354 39.3165 15.0089 39.3703V39.3705ZM19.4789 32.6097C18.3617 34.7508 17.2456 36.8937 16.0656 39.0001C16.028 39.0673 15.9902 39.1343 15.9524 39.2013C15.9247 39.1695 15.8969 39.1376 15.869 39.1058C16.8973 37.0354 17.9739 34.9898 19.0973 32.9708C19.7904 31.7251 20.5012 30.4897 21.2289 29.2645C20.6428 30.378 20.0611 31.494 19.4789 32.6097ZM30.1966 14.7507C30.7794 13.9033 31.3787 13.0679 31.9976 12.247C33.3614 10.4382 34.8199 8.69697 36.4164 7.09503C35.0135 8.70548 33.6466 10.3481 32.3162 12.0208C31.5991 12.9223 30.8927 13.8325 30.1967 14.7507H30.1966Z" fill="#42B72A" stroke="#42B72A"/>
<path d="M9.36253 25.9924C9.35258 25.9758 9.33699 25.967 9.31564 25.9661C9.25106 25.9516 9.17862 25.9594 9.11469 25.9715C9.03269 25.9871 8.94807 26.0082 8.87314 26.0461C8.58941 26.1895 8.30869 26.3395 8.03163 26.4955C7.77227 26.6416 7.51617 26.7937 7.26362 26.9516C7.01198 27.1089 6.76388 27.2719 6.51944 27.4404C6.26178 27.6181 6.0083 27.8021 5.75876 27.9913C5.52114 28.1714 5.28744 28.357 5.05807 28.5477C5.02965 28.5714 5.00122 28.5952 4.97293 28.619C4.95472 28.6303 4.94529 28.6457 4.94463 28.6652C4.93848 28.6807 4.94372 28.6932 4.96035 28.7026C4.98079 28.7142 5.00253 28.7203 5.02559 28.7207C5.05716 28.7259 5.08899 28.7264 5.12095 28.7221C5.20452 28.7144 5.28889 28.6969 5.36761 28.6672C5.43075 28.6434 5.49297 28.6163 5.54537 28.5722C5.79229 28.3644 6.0442 28.1628 6.30094 27.9675C6.36631 27.9178 6.43207 27.8685 6.49809 27.8195C6.79021 27.6043 7.08795 27.3971 7.39134 27.1984C7.7014 26.9952 8.01709 26.8009 8.3379 26.6157C8.50675 26.5183 8.67717 26.4235 8.84877 26.3311C8.97728 26.2625 9.10644 26.1953 9.23652 26.1296C9.26638 26.1174 9.29389 26.1011 9.31891 26.0809C9.33882 26.0691 9.35493 26.053 9.36712 26.0328C9.37694 26.0163 9.3755 26.0029 9.36279 25.9924H9.36253Z" fill="#42B72A" stroke="#42B72A"/>
<path d="M33.895 7.63886C34.0322 7.47522 34.165 7.3072 34.2839 7.1292C34.4035 6.95001 34.5172 6.7562 34.5726 6.54551C34.5992 6.44435 34.6154 6.34505 34.5796 6.24548C34.5413 6.13887 34.4815 6.04502 34.4149 5.95437C34.2314 5.70459 33.9975 5.49203 33.7652 5.29038C33.5201 5.07756 33.2617 4.88002 32.9993 4.6898C32.7374 4.49998 32.4703 4.3176 32.2002 4.14013C31.9971 4.00654 31.792 3.876 31.5852 3.74812C31.4782 3.68206 31.3709 3.61639 31.2627 3.55232C31.2579 3.54939 31.253 3.5466 31.2482 3.54368C31.2186 3.52626 31.1458 3.47495 31.1043 3.48067C31.0665 3.48585 31.0806 3.52161 31.0942 3.5458C31.1266 3.60349 31.1765 3.65401 31.2242 3.69814C31.2858 3.7553 31.3512 3.81259 31.4237 3.85513C31.5255 3.91495 31.6263 3.97663 31.7268 4.03857C31.9715 4.18932 32.2138 4.34392 32.4534 4.50277C32.5251 4.55022 32.5965 4.59821 32.6675 4.64646C32.6848 4.6583 32.7022 4.67013 32.7195 4.68196C32.7197 4.68209 32.7199 4.68222 32.7201 4.68236C32.7562 4.70721 32.7922 4.7322 32.8281 4.75733C32.9762 4.86115 33.1229 4.96722 33.2674 5.07636C33.3032 5.10348 33.3389 5.13073 33.3744 5.15825C33.3834 5.16516 33.3921 5.17207 33.401 5.17898C33.406 5.18297 33.4111 5.18696 33.4161 5.19095C33.4821 5.24359 33.5475 5.29702 33.6119 5.35166C33.6392 5.37479 33.666 5.39819 33.693 5.42171C33.7065 5.43394 33.7201 5.44617 33.7335 5.45854C33.7606 5.48366 33.7876 5.50892 33.8142 5.5347C33.8234 5.54361 33.8324 5.55252 33.8414 5.56142C33.8649 5.58562 33.8879 5.61021 33.9106 5.6352C33.9187 5.64424 33.9269 5.65341 33.9348 5.66245C33.9529 5.68452 33.9706 5.70685 33.9876 5.72971C33.9941 5.73835 34.0002 5.74699 34.0065 5.75577C34.0069 5.7563 34.0073 5.75683 34.0077 5.7575C34.0213 5.77876 34.0343 5.80056 34.0461 5.8229C34.0513 5.83273 34.0563 5.84257 34.061 5.85267C34.062 5.8548 34.063 5.85693 34.0639 5.85905C34.0761 5.89362 34.0867 5.92804 34.0893 5.965C34.0909 5.98746 34.0889 6.0098 34.086 6.032C34.0602 6.19377 33.991 6.34611 33.9124 6.48795C33.824 6.6476 33.7194 6.79781 33.6092 6.94257C33.36 7.26984 33.0852 7.57811 32.8207 7.89262C32.2144 8.6139 31.608 9.33505 31.0016 10.0563C30.6604 10.4623 30.319 10.8683 29.9778 11.2741C29.9572 11.2986 30.0113 11.3657 30.0192 11.3762C30.0649 11.4371 30.1261 11.4944 30.1845 11.5422C30.2442 11.5911 30.3071 11.6415 30.3768 11.6749C30.3996 11.6858 30.4611 11.723 30.4834 11.6966C30.8645 11.2433 31.2455 10.7901 31.6266 10.3368C32.006 9.88551 32.3854 9.43421 32.7648 8.98305C33.1415 8.53494 33.5191 8.08736 33.8951 7.63859L33.895 7.63886ZM33.9946 5.73809C33.9956 5.73995 33.9969 5.74181 33.9981 5.74367C33.9965 5.74128 33.9952 5.73928 33.9946 5.73809Z" fill="#42B72A" stroke="#42B72A"/>
</svg>
