<svg width="112" height="82" viewBox="0 0 112 82" fill="none" xmlns="http://www.w3.org/2000/svg">
<path d="M1.5625 80.1875H30.0625" stroke="#C46700" stroke-width="2" stroke-linecap="round" stroke-linejoin="round"/>
<path d="M51.4375 8.9375C51.4375 7.99267 51.0622 7.08653 50.3941 6.41843C49.726 5.75033 48.8198 5.375 47.875 5.375H12.25C11.3052 5.375 10.399 5.75033 9.73093 6.41843C9.06283 7.08653 8.6875 7.99267 8.6875 8.9375V76.625C8.6875 77.5698 9.06283 78.476 9.73093 79.1441C10.399 79.8122 11.3052 80.1875 12.25 80.1875H95.9688C96.9136 80.1875 97.8197 79.8122 98.4878 79.1441C99.1559 78.476 99.5312 77.5698 99.5312 76.625V16.0625C99.5312 15.1177 99.1559 14.2115 98.4878 13.5434C97.8197 12.8753 96.9136 12.5 95.9688 12.5H55C54.0552 12.5 53.149 12.1247 52.4809 11.4566C51.8128 10.7885 51.4375 9.88233 51.4375 8.9375Z" fill="#C46700" stroke="#C46700" stroke-width="2" stroke-linecap="round" stroke-linejoin="round"/>
<path d="M92.4062 1.8125H41.3556L28.2812 14.3169V24.9688H92.4062V1.8125Z" fill="white" stroke="#CFD8DC" stroke-width="2" stroke-linecap="round" stroke-linejoin="round"/>
<path d="M28.2812 14.2812H40.75V1.8125L28.2812 14.2812Z" fill="#CFD8DC" stroke="#CFD8DC" stroke-width="2" stroke-linecap="round" stroke-linejoin="round"/>
<path d="M106.656 24.9688H22.9375C21.9927 24.9688 21.0865 25.3441 20.4184 26.0122C19.7503 26.6803 19.375 27.5864 19.375 28.5312L8.6875 76.625C8.6875 77.5698 9.06283 78.476 9.73093 79.1441C10.399 79.8122 11.3052 80.1875 12.25 80.1875H95.9688C96.9136 80.1875 97.8197 79.8122 98.4878 79.1441C99.1559 78.476 99.5312 77.5698 99.5312 76.625L110.219 28.5312C110.219 27.5864 109.843 26.6803 109.175 26.0122C108.507 25.3441 107.601 24.9688 106.656 24.9688Z" fill="#FDAD10" stroke="#FDAD10" stroke-width="2" stroke-linecap="round" stroke-linejoin="round"/>
<path opacity="0.1" d="M31.3806 24.9688H22.9375C21.9927 24.9688 21.0865 25.3441 20.4184 26.0122C19.7503 26.6803 19.375 27.5864 19.375 28.5312L8.6875 76.625C8.6875 77.5698 9.06283 78.476 9.73093 79.1441C10.399 79.8122 11.3052 80.1875 12.25 80.1875H21.6194L31.3806 24.9688Z" fill="#3B5998" stroke="#3B5998" stroke-width="2" stroke-miterlimit="10" stroke-linecap="round"/>
<path d="M54.7507 57.156C55.9664 58.3165 57.4041 59.2192 58.9774 59.81C60.5508 60.4008 62.2273 60.6674 63.9064 60.5938C65.5698 60.6648 67.2307 60.4019 68.7909 59.8207C70.3512 59.2394 71.7792 58.3515 72.9907 57.2094" stroke="#54596E" stroke-width="2" stroke-linecap="round" stroke-linejoin="round"/>
<path d="M78.1562 48.125C80.1238 48.125 81.7188 46.53 81.7188 44.5625C81.7188 42.595 80.1238 41 78.1562 41C76.1887 41 74.5938 42.595 74.5938 44.5625C74.5938 46.53 76.1887 48.125 78.1562 48.125Z" fill="#3B5998"/>
<path d="M51.4375 48.125C53.405 48.125 55 46.53 55 44.5625C55 42.595 53.405 41 51.4375 41C49.47 41 47.875 42.595 47.875 44.5625C47.875 46.53 49.47 48.125 51.4375 48.125Z" fill="#3B5998"/>
<path d="M44.3125 55.25C46.28 55.25 47.875 53.655 47.875 51.6875C47.875 49.72 46.28 48.125 44.3125 48.125C42.345 48.125 40.75 49.72 40.75 51.6875C40.75 53.655 42.345 55.25 44.3125 55.25Z" fill="#42B72A"/>
<path d="M85.2812 55.25C87.2488 55.25 88.8438 53.655 88.8438 51.6875C88.8438 49.72 87.2488 48.125 85.2812 48.125C83.3137 48.125 81.7188 49.72 81.7188 51.6875C81.7188 53.655 83.3137 55.25 85.2812 55.25Z" fill="#42B72A"/>
</svg>
