<svg width="47" height="65" viewBox="0 0 47 65" fill="none" xmlns="http://www.w3.org/2000/svg">
<path d="M46.6035 53.5742V65H1.95508V55.332L22.5215 33.7109C24.3379 31.6309 25.8027 29.7705 26.916 28.1299C28.0293 26.46 28.835 24.9512 29.333 23.6035C29.8604 22.2559 30.124 21.04 30.124 19.9561C30.124 18.1104 29.8457 16.5723 29.2891 15.3418C28.7617 14.082 27.9707 13.1299 26.916 12.4854C25.8906 11.8408 24.6162 11.5186 23.0928 11.5186C21.5693 11.5186 20.2363 11.958 19.0938 12.8369C17.9512 13.7158 17.0576 14.917 16.4131 16.4404C15.7979 17.9639 15.4902 19.6777 15.4902 21.582H0.636719C0.636719 17.6563 1.58887 14.0674 3.49316 10.8154C5.42676 7.56348 8.10742 4.9707 11.5352 3.03711C14.9629 1.07422 18.9326 0.0927734 23.4443 0.0927734C28.1611 0.0927734 32.1162 0.825195 35.3096 2.29004C38.5029 3.75488 40.9053 5.87891 42.5166 8.66211C44.1572 11.416 44.9775 14.7412 44.9775 18.6377C44.9775 20.8643 44.626 23.0029 43.9229 25.0537C43.2197 27.1045 42.209 29.1406 40.8906 31.1621C39.5723 33.1543 37.9609 35.2051 36.0566 37.3145C34.1816 39.4238 32.043 41.665 29.6406 44.0381L21.3789 53.5742H46.6035Z" fill="#CAC9C9"/>
</svg>
