<svg width="81" height="80" viewBox="0 0 81 80" fill="none" xmlns="http://www.w3.org/2000/svg">
<g clip-path="url(#clip0_767_3)">
<path d="M33.6891 15.9305C33.2684 12.7718 32.1512 9.90978 30.1856 7.81323C28.0891 5.84771 25.227 4.73047 22.0684 4.30978C19.0546 3.90978 16.9994 4.00633 16.9994 4.00633C16.9994 4.00633 14.9443 3.90978 11.9305 4.30978C8.77185 4.73047 5.90978 5.84771 3.82012 7.81323C1.84771 9.90978 0.730466 12.7718 0.309777 15.9305C-0.0902232 18.9443 0.00632855 20.9994 0.00632855 20.9994C0.00632855 20.9994 -0.0902232 23.0546 0.309777 26.0684C0.730466 29.227 1.84771 32.0891 3.81323 34.1856C5.90978 36.1581 8.77184 37.2753 11.9236 37.696C14.9374 38.096 16.9925 37.9994 16.9925 37.9994C16.9925 37.9994 19.0477 38.096 22.0615 37.696C25.2201 37.2753 28.0822 36.1581 30.1718 34.1856C32.1443 32.0891 33.2615 29.227 33.6753 26.0684C34.0753 23.0546 33.9787 20.9994 33.9787 20.9994C33.9787 20.9994 34.0891 18.9443 33.6891 15.9305Z" fill="#7882FF"/>
<path d="M25.7034 18.4827C27.0482 23.3103 24.2206 28.3172 19.393 29.662C14.5654 31.0068 9.55854 28.1792 8.21372 23.3516C6.86889 18.5241 9.69648 13.5172 14.5241 12.1723C19.3516 10.8275 24.3585 13.6551 25.7034 18.4827Z" fill="white"/>
<path d="M25.7034 18.4827C26.2068 20.2965 26.124 22.1309 25.5723 23.7861C25.5309 23.9171 25.4827 24.0551 25.4275 24.1861" fill="white"/>
<path d="M25.5586 18.4827C25.9103 19.7516 25.9793 21.0344 25.7931 22.2551L25.5586 18.4827Z" fill="white"/>
<path d="M23.0277 27.2896C20.7311 27.2896 17.938 26.7034 15.1518 25.6482C12.3656 24.593 9.88972 23.1723 8.17248 21.6482C5.38627 19.1723 5.55868 17.2551 5.91041 16.331C6.26213 15.4068 7.40696 13.8551 11.1311 13.8551C13.4276 13.8551 16.2208 14.4413 19.007 15.4965C21.7932 16.5517 24.269 17.9723 25.9863 19.4965C28.7725 21.9723 28.6001 23.8896 28.2483 24.8137C27.9035 25.7379 26.7587 27.2896 23.0277 27.2896ZM11.138 16.731C9.41386 16.731 8.67593 17.1586 8.60006 17.3517C8.5242 17.5448 8.80006 18.3586 10.0897 19.5034C11.5311 20.7792 13.7518 22.0482 16.1794 22.9654C18.607 23.8896 21.1104 24.4206 23.0345 24.4206C24.7587 24.4206 25.4966 23.993 25.5725 23.7999C25.6483 23.6068 25.3725 22.793 24.0897 21.6482C22.6483 20.3723 20.4277 19.1034 18.0001 18.1861C15.5587 17.262 13.0621 16.731 11.138 16.731Z" fill="#4D5CC1"/>
<path d="M8.59985 17.3792L25.5585 23.8206C26.124 22.1516 26.2136 20.3034 25.7033 18.4827C24.3585 13.6551 19.3585 10.8275 14.524 12.1723C11.7516 12.9447 9.64123 14.9241 8.59985 17.3792Z" fill="white"/>
</g>
<g clip-path="url(#clip1_767_3)">
<path fill-rule="evenodd" clip-rule="evenodd" d="M78.4375 19.2187C78.4375 29.8329 69.8329 38.4375 59.2187 38.4375C48.6045 38.4375 40 29.8329 40 19.2187C40 8.60453 48.6045 0 59.2187 0C69.8329 0 78.4375 8.60453 78.4375 19.2187Z" fill="url(#paint0_linear_767_3)"/>
<path fill-rule="evenodd" clip-rule="evenodd" d="M77.5066 19.2187C77.5066 29.3188 69.3188 37.5066 59.2187 37.5066C49.1186 37.5066 40.9309 29.3188 40.9309 19.2187C40.9309 9.11865 49.1186 0.930908 59.2187 0.930908C69.3188 0.930908 77.5066 9.11865 77.5066 19.2187Z" fill="white"/>
<path fill-rule="evenodd" clip-rule="evenodd" d="M71.5909 11.291L61.3058 21.3508V33.858C61.3058 34.0832 60.3299 34.2634 59.2188 34.2784C58.1528 34.2634 57.1318 34.0832 57.1318 33.858V21.3508L46.8468 11.291C46.6816 11.1258 47.2071 10.3451 48.0179 9.53426C48.8287 8.72347 49.6245 8.19796 49.7746 8.36312L59.2038 17.5671L68.633 8.36312C68.7982 8.19796 69.5789 8.72347 70.3897 9.53426C71.2005 10.3451 71.741 11.1258 71.5909 11.291Z" fill="#EC1C24"/>
</g>
<g clip-path="url(#clip2_767_3)">
<path d="M11.7375 72.0125C9.9625 69.925 8.825 66.8375 8.75 63.375V62.625C8.825 59.1625 9.975 56.075 11.7375 53.9875C14.0375 51.0125 17.4125 49.675 21.225 49.675C23.575 49.675 25.7875 49.8375 27.6625 51.0875C24.85 48.55 21.1375 47.0125 17.0625 47H17C8.1625 47 1 54.1625 1 63C1 71.575 7.75 78.5875 16.2375 78.9875C16.4875 79 16.75 79 17 79C21.1 79 24.8375 77.4625 27.6625 74.925C25.7875 76.175 23.7 76.225 21.35 76.225C17.55 76.2375 14.025 75 11.7375 72.0125Z" fill="url(#paint1_linear_767_3)"/>
<path d="M11.7375 53.9875C13.2 52.25 15.1 51.2125 17.175 51.2125C21.8375 51.2125 25.6125 56.4876 25.6125 63.0126C25.6125 69.5376 21.8375 74.8126 17.175 74.8126C15.1 74.8126 13.2125 73.7626 11.7375 72.0376C14.0375 75.0126 17.45 76.9126 21.25 76.9126C23.5875 76.9126 25.7875 76.2001 27.6625 74.9501C30.9375 72.0001 33 67.7376 33 63.0001C33 58.2625 30.9375 54 27.6625 51.075C25.7875 49.825 23.6 49.1125 21.25 49.1125C17.4375 49.1125 14.025 51 11.7375 53.9875Z" fill="url(#paint2_linear_767_3)"/>
</g>
<g clip-path="url(#clip3_767_3)">
<path d="M73.8925 72.6575C66.55 82.1931 56.7119 79.7181 52.8481 77.5525C46.9494 74.2525 42.8175 66.5731 45.2719 58.9006C45.9938 56.6388 47.0938 54.7 48.4619 53.0981C49.8025 53.2013 51.3906 53.2013 53.2744 53.0638C64.515 52.2663 67.7188 61.8913 66.9213 64.2975C66.5088 65.5281 65.0581 65.92 63.7381 66.0094C63.8688 65.8306 64.0269 65.5763 64.2538 65.1913C64.955 63.9538 65.0375 61.5888 62.865 60.1588C60.7681 58.7975 58.5063 59.6363 57.3444 61.1831C56.1825 62.7231 56.6363 65.04 57.0488 66.0713C58.8156 70.4988 62.0744 71.6469 64.2881 72.3138C66.5019 72.9806 69.795 72.8844 71.5481 72.1625C73.2944 71.4338 73.7963 71.0144 74.1331 71.3856C74.47 71.75 74.2294 72.1763 73.8925 72.6575Z" fill="#1E88E5"/>
<path d="M73.9268 72.6575C71.1356 76.2875 67.9799 78.1712 64.9343 79.0031C64.9068 79.01 64.8862 79.01 64.8724 79.0169C63.1056 79.3537 61.7031 79.0787 60.1768 78.7831C57.6949 78.3019 54.2781 75.5656 53.4531 70.6156C52.7449 66.3531 54.7593 62.7437 57.9356 60.5575C57.7293 60.75 57.5437 60.9562 57.3718 61.1831C56.2099 62.7231 56.6637 65.04 57.0762 66.0712C58.8431 70.4987 62.1018 71.6469 64.3156 72.3137C66.5293 72.9806 69.8224 72.8844 71.5756 72.1625C73.3218 71.4337 73.8237 71.0144 74.1606 71.3856C74.5043 71.75 74.2637 72.1762 73.9268 72.6575Z" fill="#0D47A1"/>
<path d="M62.8581 47.6462C62.8719 47.8525 62.8856 48.0793 62.8856 48.2993C62.8856 51.3312 61.4831 54.0262 59.29 55.7793C58.4719 55.36 57.5163 55.0231 56.3613 54.8031C53.0956 54.1775 47.8294 55.6831 45.6913 59.43C44.9831 60.6537 44.6875 61.9118 44.5569 63.0806C44.5913 61.7056 44.825 60.3031 45.2719 58.9006C47.9119 50.6643 55.5706 46.6837 62.8581 47.6462Z" fill="#00E5FF"/>
<path d="M74.4631 66.6144C72.2493 68.8419 69.4306 68.9107 67.5056 68.8075C65.5737 68.7113 64.6249 68.1475 63.7449 67.6044C62.8512 67.0475 63.3599 66.5044 63.4493 66.3875C63.5387 66.2638 63.7518 66.0575 64.2537 65.1913C64.4874 64.7788 64.6524 64.2425 64.6868 63.6582C68.3924 60.9082 71.0737 56.845 72.0362 52.1494C74.3806 54.5144 75.4874 57.1338 75.8793 58.2544C76.5806 60.2757 77.1168 63.9469 74.4631 66.6144Z" fill="#00E676"/>
<path d="M72.0294 52.1425V52.1494C71.0669 56.845 68.3857 60.9012 64.68 63.6581C64.7075 63.3212 64.68 62.9569 64.5975 62.5994C64.5975 62.5856 64.5907 62.565 64.5907 62.5581C64.3913 61.3756 63.7932 59.8837 62.81 58.7287C61.8338 57.5737 60.7888 56.5356 59.29 55.7794C61.4832 54.0331 62.8857 51.3312 62.8857 48.2994C62.8857 48.0794 62.8788 47.8594 62.8582 47.6462C63.1813 47.6875 63.4907 47.7356 63.8138 47.7975C67.5125 48.5125 70.1594 50.2519 72.0294 52.1425Z" fill="#1DE9B6"/>
</g>
<defs>
<linearGradient id="paint0_linear_767_3" x1="59.2187" y1="1.80911e-09" x2="59.2187" y2="38.4375" gradientUnits="userSpaceOnUse">
<stop offset="1e-07" stop-color="#F5F5F6"/>
<stop offset="1" stop-color="#EDEDEE"/>
</linearGradient>
<linearGradient id="paint1_linear_767_3" x1="1334.19" y1="99.1725" x2="1334.19" y2="3200.44" gradientUnits="userSpaceOnUse">
<stop offset="0.3" stop-color="#FF1B2D"/>
<stop offset="0.4381" stop-color="#FA1A2C"/>
<stop offset="0.5939" stop-color="#ED1528"/>
<stop offset="0.7581" stop-color="#D60E21"/>
<stop offset="0.9272" stop-color="#B70519"/>
<stop offset="1" stop-color="#A70014"/>
</linearGradient>
<linearGradient id="paint2_linear_767_3" x1="1074.66" y1="72.8251" x2="1074.66" y2="2815.74" gradientUnits="userSpaceOnUse">
<stop stop-color="#9C0000"/>
<stop offset="0.7" stop-color="#FF4B4B"/>
</linearGradient>
<clipPath id="clip0_767_3">
<rect width="34" height="34" fill="white" transform="translate(0 4)"/>
</clipPath>
<clipPath id="clip1_767_3">
<rect width="41" height="41" fill="white" transform="translate(40)"/>
</clipPath>
<clipPath id="clip2_767_3">
<rect width="32" height="32" fill="white" transform="translate(1 47)"/>
</clipPath>
<clipPath id="clip3_767_3">
<rect width="33" height="33" fill="white" transform="translate(44 47)"/>
</clipPath>
</defs>
</svg>
