<svg width="77" height="120" viewBox="0 0 77 120" fill="none" xmlns="http://www.w3.org/2000/svg">
<path d="M48.8374 81.8589H25.7148C25.7148 77.1323 26.0371 72.9697 26.6816 69.3711C27.3799 65.7188 28.5615 62.4424 30.2266 59.542C31.8916 56.6416 34.1475 53.9561 36.9941 51.4854C39.5186 49.3906 41.6938 47.3765 43.52 45.4429C45.3462 43.5093 46.7427 41.5488 47.7095 39.5615C48.6763 37.5742 49.1597 35.4526 49.1597 33.1968C49.1597 30.4038 48.7568 28.1211 47.9512 26.3486C47.1992 24.5762 46.0444 23.2603 44.4868 22.4009C42.9829 21.4878 41.0762 21.0312 38.7666 21.0312C36.8867 21.0312 35.1143 21.4878 33.4492 22.4009C31.8379 23.314 30.522 24.7373 29.5015 26.6709C28.481 28.5508 27.917 31.0483 27.8096 34.1636H0.497559C0.658691 26.1606 2.43115 19.6616 5.81494 14.6665C9.25244 9.61768 13.8179 5.93848 19.5112 3.62891C25.2583 1.26563 31.6768 0.0839844 38.7666 0.0839844C46.6084 0.0839844 53.3491 1.29248 58.9888 3.70947C64.6284 6.12646 68.9521 9.7251 71.96 14.5054C74.9678 19.2319 76.4717 25.0596 76.4717 31.9883C76.4717 36.6074 75.5854 40.6357 73.813 44.0732C72.0942 47.457 69.7578 50.626 66.8037 53.5801C63.9033 56.4805 60.6538 59.5957 57.0552 62.9258C53.9399 65.665 51.8184 68.458 50.6904 71.3047C49.5625 74.0977 48.9448 77.6157 48.8374 81.8589ZM22.4116 106.351C22.4116 102.484 23.8081 99.2612 26.6011 96.6831C29.394 94.0513 33.0195 92.7354 37.4775 92.7354C41.9355 92.7354 45.561 94.0513 48.354 96.6831C51.147 99.2612 52.5435 102.484 52.5435 106.351C52.5435 110.218 51.147 113.468 48.354 116.1C45.561 118.678 41.9355 119.967 37.4775 119.967C33.0195 119.967 29.394 118.678 26.6011 116.1C23.8081 113.468 22.4116 110.218 22.4116 106.351Z" fill="#ECECEC"/>
</svg>
