<svg width="53" height="29" viewBox="0 0 53 29" fill="none" xmlns="http://www.w3.org/2000/svg">
<path d="M19.9285 5.04066C21.1229 5.00465 22.2873 5.26274 23.4638 5.4308C27.7073 6.05503 32.395 8.36589 32.9412 9.17018C33.1333 9.45829 32.8752 9.72838 32.6351 9.66836C31.4767 9.36825 30.1382 8.41991 25.9547 7.22547C22.0052 6.09706 20.3906 6.34315 19.1962 6.11506C18.776 6.03703 18.4639 6.24711 17.9357 6.10905C17.8157 6.07904 17.6776 6.07305 17.5576 6.09706C16.9814 6.2171 11.1592 6.15106 6.33946 9.70437C4.19067 11.289 2.61809 13.4017 2.13792 14.4101C1.94585 14.8063 1.75978 15.0343 2.16793 15.2024C3.66848 15.8266 6.69959 16.6009 8.28418 16.925C9.4366 17.1651 9.7247 17.1111 9.82074 17.5853C9.88676 17.9094 9.59866 18.2215 9.26254 18.2035C7.94805 18.1255 3.05025 16.9731 1.51969 16.0427C0.841441 15.6286 0.523324 15.0764 0.871452 14.3501C3.86055 8.1138 10.8051 5.1487 17.9777 5.00465C18.638 4.99265 19.2862 5.06467 19.9405 5.05266L19.9285 5.04066Z" fill="#A8A8A8"/>
<path d="M9.38257 18.7137C9.61066 18.1375 10.1689 18.1255 10.2229 18.8457C10.2229 18.8877 10.2349 18.9297 10.2229 18.9718C10.1148 19.4159 10.1989 19.8541 10.2049 20.2983C10.2469 23.2273 11.5134 26.0304 12.8819 27.4049C13.0499 27.5729 13.1219 27.5609 13.194 27.3568C13.4641 26.5946 14.3884 21.8708 18.806 17.6993C22.9476 13.7859 28.5176 12.6094 31.6087 13.3717C31.7768 13.4137 31.9389 13.4437 32.0829 13.5458C32.269 13.6778 32.251 13.9719 32.0469 14.074C31.8068 14.194 30.8465 14.254 30.6664 14.26C22.8755 14.5121 16.039 20.3943 14.4184 27.657C14.3524 27.9451 14.2384 28.2212 14.0943 28.4853C13.8422 28.9414 13.5181 29.0675 13.0319 28.8754C10.9732 28.0711 9.59865 24.7099 9.1965 22.357C8.98643 21.1326 8.92641 19.8721 9.37657 18.7257L9.38257 18.7137Z" fill="#A8A8A8"/>
<path d="M31.2667 21.3907C32.155 18.4496 33.4575 14.6682 33.8716 13.8159C34.0697 13.4078 34.3518 13.0536 34.7779 13.2037C35.2401 13.3718 35.2161 13.8939 35.0601 14.3681C33.6555 18.7197 34.3938 16.5469 32.9473 20.5684C32.8993 20.7064 32.8512 20.8505 32.8152 20.9946C32.8032 21.0606 32.8512 21.1326 32.9293 21.1086C33.0673 21.0666 33.2054 21.0065 33.3374 20.9405C51.7942 11.9072 52.5025 11.6851 52.7065 12.1653C52.8866 12.5855 52.0823 12.9756 46.7523 15.7006C39.4537 19.434 37.641 20.2923 32.8512 22.6031C32.203 22.9153 31.8249 23.1373 31.4647 22.7172C31.2847 22.5071 31.0506 22.111 31.2667 21.4027V21.3907Z" fill="#A8A8A8"/>
<path d="M31.8307 0.166865C32.0347 -0.0852281 32.3588 -0.0132001 32.653 0.130853C35.3599 1.43933 46.7341 7.45354 52.2321 10.7007C53.0124 11.1629 52.6883 11.541 52.4362 11.505C50.9897 11.3069 33.1631 1.70942 33.0791 1.84747C32.9891 1.99753 33.1872 2.23162 34.2976 5.77292C34.4476 6.24109 35.1379 8.56395 35.2219 9.08014C35.2999 9.58433 34.7777 10.0645 34.3456 9.72238C33.9914 9.44628 33.9134 9.17618 33.7093 8.57596C32.9591 6.40916 32.2748 4.23036 31.6686 2.02154C31.3085 0.719065 31.4825 0.605031 31.8367 0.172873L31.8307 0.166865Z" fill="#A8A8A8"/>
<path d="M22.3053 8.51592C23.2177 8.75001 22.9956 9.23618 22.4314 9.14615C21.387 8.97208 18.9021 8.95409 17.7437 9.11614C13.7162 9.67435 10.6731 11.6851 9.37658 13.4677C9.31656 13.5518 9.26254 13.6478 9.18451 13.7198C8.71033 14.212 8.15213 13.6118 8.3622 13.2217C10.0488 10.1185 13.9142 8.56394 17.3895 8.17379C19.4303 7.94571 20.8468 8.13779 22.2993 8.51592H22.3053Z" fill="#A8A8A8"/>
</svg>
