<svg width="51" height="47" viewBox="0 0 51 47" fill="none" xmlns="http://www.w3.org/2000/svg">
<path d="M25.2247 39.8753C25.0441 40.0394 10.2724 36.6594 7.98235 36.674C7.78456 36.6726 7.75314 36.6061 7.84908 36.4307C9.05857 34.187 11.9077 26.351 12.676 24.2392C12.795 23.9214 12.8014 23.5385 13.0988 23.3022C13.2527 23.4448 15.7566 27.2257 15.7697 27.2494C16.6697 28.6011 17.7238 27.8354 17.4577 26.9945C17.2672 26.3853 14.9873 23.2115 13.4606 21.5784C12.944 21.0225 12.2822 21.1182 11.9556 21.8047C11.1913 23.3981 6.92119 34.7461 6.81925 36.271C6.80011 36.5552 6.85378 36.8063 7.15717 36.9224C7.49913 37.0554 7.08339 37.5616 7.86178 37.8499C9.88551 38.5942 24.8858 41.5317 26.8433 41.4701C27.5048 41.4494 27.9183 40.8077 27.6211 40.2066C26.8416 38.6184 25.9309 37.4806 24.8292 35.7064C24.3259 34.8951 23.6936 34.1864 23.1573 33.4044C22.3987 32.3007 21.1471 32.99 21.5968 33.9314C21.767 34.2874 21.928 34.6595 22.133 34.9926C24.1194 38.1634 25.3787 39.7387 25.2201 39.8833L25.2247 39.8753Z" fill="#A8A8A8"/>
<path d="M43.7908 9.70761C43.591 9.39358 43.3465 9.2685 43.07 9.32897C41.5812 9.66662 44.2043 12.5715 40.6953 19.0118C35.0158 29.4441 21.8369 31.9067 24.3382 32.5026C25.6914 32.8275 39.1334 28.2727 43.2318 17.1478C44.0187 15.0037 44.3659 12.7937 44.026 10.5091C43.9846 10.2275 43.9542 9.93612 43.7908 9.70761Z" fill="#A8A8A8"/>
<path d="M28.6283 19.5018C31.6546 15.655 34.1442 10.3387 34.8825 6.5399C35.0277 5.78624 35.6449 3.03418 35.5724 2.22997C35.5102 1.56593 34.6707 1.5322 34.4324 2.06573C34.0666 2.88529 33.6452 13.8623 23.6037 22.8767C20.6184 25.5553 20.7229 25.1325 20.0765 25.7686C19.8616 25.9827 19.5801 26.1262 19.2821 26.2333C18.277 26.5979 18.4049 27.2784 18.855 27.2054C19.4483 27.1077 20.0216 26.9609 20.5362 26.646C23.8993 24.615 26.6652 21.9815 28.6249 19.4891L28.6283 19.5018Z" fill="#A8A8A8"/>
<path d="M34.204 14.6521C35.2511 15.0794 36.4566 15.158 39.0855 15.4679C39.5074 15.5182 39.9241 15.4474 40.3395 15.3974C40.5241 15.3751 40.6888 15.3038 40.7445 15.1051C40.9014 14.5729 40.3632 14.3427 39.8467 14.168C38.7514 13.8148 35.3832 12.8794 34.5364 12.7932C33.6545 12.7027 32.7713 14.0557 34.2087 14.644L34.204 14.6521Z" fill="#A8A8A8"/>
<path d="M10.2449 34.55C10.9722 35.029 18.6181 36.5335 18.8049 36.5448C19.2234 36.5824 19.5096 36.1517 19.1052 35.8108C18.1881 35.0559 11.9874 33.5589 11.0211 33.3822C10.7572 33.3372 9.56241 34.0862 10.2495 34.5419L10.2449 34.55Z" fill="#A8A8A8"/>
<path d="M26.9184 23.9422C27.105 24.1305 27.3355 24.2797 27.5826 24.3633C30.1663 25.2162 30.1264 25.118 32.3911 25.4913C33.4739 25.6709 33.8099 25.0703 33.4375 24.646C32.9676 24.1116 28.7633 22.8761 27.7326 22.6622C27.0412 22.5207 26.3047 23.3034 26.9247 23.9405L26.9184 23.9422Z" fill="#A8A8A8"/>
<path d="M32.1177 20.051C33.6098 20.3863 35.773 20.889 37.3258 20.9426C37.7311 20.9566 38.1259 21.0073 38.2326 20.618C38.2883 20.4193 38.2267 20.2656 37.9978 20.1227C37.8109 20.0094 37.6176 19.8978 37.4074 19.8248C34.2325 18.7219 31.8784 17.9641 31.2939 18.6788C30.833 19.2448 31.4644 19.8993 32.116 20.0446L32.1177 20.051Z" fill="#A8A8A8"/>
<path d="M36.9574 8.99945C38.1938 9.39652 40.4028 9.96862 41.6829 9.74134C42.3397 9.62662 42.4301 8.7447 41.5704 8.45772C40.4446 8.09228 37.7773 7.10524 36.8092 7.20127C35.9668 7.28402 35.6456 8.57493 36.9574 8.99945Z" fill="#A8A8A8"/>
<path d="M12.4805 31.2076C12.637 31.4107 12.8464 31.5316 13.0773 31.6059C14.0908 31.9333 17.4499 32.9869 18.5058 32.9898C18.8806 32.9915 19.0638 32.5068 18.7078 32.2958C17.8508 31.7903 15.4892 30.7758 13.2095 30.2703C12.6668 30.1502 12.0579 30.6469 12.4805 31.2076Z" fill="#A8A8A8"/>
<path d="M22.4354 27.5599C23.17 28.0915 26.0974 28.7025 26.8655 28.8507C27.4175 28.9546 28.0926 28.9847 28.1246 28.418C28.1428 28.0796 27.9466 27.9824 27.4665 27.7911C26.3779 27.3612 25.2724 26.9699 24.1581 26.6219C23.8022 26.513 23.4247 26.4508 23.0566 26.3724C22.2131 26.1968 21.8703 27.1532 22.429 27.5616L22.4354 27.5599Z" fill="#A8A8A8"/>
</svg>
