<svg width="58" height="58" viewBox="0 0 58 58" fill="none" xmlns="http://www.w3.org/2000/svg">
<path d="M30.491 17.1404C31.3611 17.9595 32.002 18.9654 32.715 19.9161C35.2743 23.3581 36.955 28.3069 36.7725 29.2618C36.7046 29.6013 36.3311 29.6098 36.2037 29.3976C35.5968 28.3663 35.3209 26.7492 33.2073 22.9464C31.2126 19.3558 29.8969 18.3882 29.2135 17.3823C28.9716 17.03 28.6024 16.9579 28.3265 16.4868C28.2628 16.3806 28.1695 16.2788 28.0676 16.2109C27.5753 15.8883 23.5051 11.7248 17.5844 10.8292C14.9445 10.4303 12.3386 10.8123 11.286 11.1857C10.8701 11.3301 10.5773 11.3598 10.747 11.7672C11.3667 13.2696 12.9625 15.9605 13.8538 17.3101C14.4989 18.2948 14.7408 18.4603 14.4734 18.8635C14.2909 19.1394 13.8665 19.1563 13.6416 18.9059C12.7673 17.9213 10.1189 13.6431 9.69446 11.903C9.50771 11.1306 9.67324 10.5152 10.433 10.2478C16.9563 7.95167 23.9635 10.7656 29.1371 15.7355C29.6125 16.1939 30.0199 16.7032 30.491 17.1573L30.491 17.1404Z" fill="#3B5998"/>
<path d="M13.3657 19.3515C13.9344 19.1054 14.3376 19.4916 13.8665 20.0391C13.8368 20.0688 13.8156 20.107 13.7774 20.1282C13.3869 20.3659 13.1365 20.7352 12.8267 21.0535C10.7852 23.1544 9.69869 26.0319 9.69444 27.9715C9.69444 28.2092 9.75387 28.2516 9.9491 28.1583C10.6791 27.8102 14.6729 25.1237 20.7463 25.2977C26.4421 25.4589 31.2125 28.5657 32.8593 31.2905C32.9484 31.439 33.0418 31.5748 33.0715 31.7489C33.1097 31.9738 32.889 32.169 32.6725 32.0969C32.4179 32.012 31.6964 31.3754 31.5648 31.2523C25.8776 25.9216 16.8841 25.2467 10.6027 29.2363C10.3523 29.3933 10.0764 29.5079 9.78782 29.5928C9.287 29.7371 8.96869 29.597 8.76073 29.1174C7.87369 27.093 9.27851 23.7443 10.6579 21.7962C11.3751 20.7818 12.224 19.8481 13.3529 19.3558L13.3657 19.3515Z" fill="#3B5998"/>
<path d="M26.947 36.7189C29.6548 35.2674 33.2497 33.5145 34.1452 33.2047C34.5739 33.0561 35.0237 33.0052 35.219 33.4127C35.4269 33.8583 35.0407 34.2106 34.5951 34.4355C30.5249 36.5194 32.5833 35.505 28.7169 37.3258C28.5853 37.3895 28.4495 37.4574 28.3221 37.5338C28.267 37.572 28.25 37.6568 28.3221 37.695C28.4495 37.763 28.5895 37.8181 28.7296 37.8648C48.168 44.5282 48.8259 44.872 48.6306 45.3558C48.4609 45.7803 47.6163 45.4874 41.9206 43.6454C34.1197 41.1244 32.231 40.4495 27.2102 38.6967C26.5311 38.459 26.1067 38.3487 26.1491 37.7969C26.1703 37.521 26.2849 37.0754 26.9385 36.7274L26.947 36.7189Z" fill="#3B5998"/>
<path d="M42.3536 22.1103C42.6762 22.0763 42.8544 22.3564 42.9605 22.6663C43.9494 25.5056 47.7395 37.8011 49.3311 43.9849C49.556 44.8634 49.0594 44.9016 48.9067 44.6979C48.0239 43.535 42.2051 24.1432 42.048 24.1814C41.8783 24.2239 41.8528 24.5295 40.1339 27.8187C39.9089 28.2559 38.7545 30.3865 38.4489 30.8109C38.1476 31.2226 37.4388 31.1929 37.3751 30.6454C37.32 30.1997 37.4558 29.9535 37.7359 29.3848C38.7375 27.3221 39.7944 25.2977 40.9276 23.3071C41.5939 22.1315 41.7976 22.1739 42.3536 22.1188L42.3536 22.1103Z" fill="#3B5998"/>
<path d="M29.7142 21.2784C30.1938 22.0891 29.693 22.2758 29.3577 21.8132C28.7423 20.9516 26.9979 19.1818 26.0642 18.4772C22.8216 16.0241 19.248 15.2941 17.0707 15.6379C16.9688 15.6549 16.8628 15.6846 16.7566 15.6803C16.0733 15.693 16.103 14.8739 16.5275 14.7466C19.9143 13.745 23.7468 15.379 26.4801 17.5605C28.0844 18.8422 28.9502 19.9797 29.7099 21.2742L29.7142 21.2784Z" fill="#3B5998"/>
</svg>
