<svg width="106" height="108" viewBox="0 0 106 108" fill="none" xmlns="http://www.w3.org/2000/svg">
<g clip-path="url(#clip0_58_1591)">
<path d="M44.9641 0.00878275C30.5913 0.248075 8.3538 5.39697 1.95293 18.6285C-0.28256 23.2496 -0.131078 30.0434 0.171511 43.6309C0.260376 47.6247 0.408108 53.4456 1.44411 60.668C3.59636 75.6715 5.06131 85.885 10.6062 91.8327C24.4998 106.735 74.6876 106.304 96.1193 79.4756C107.81 64.8403 109.609 44.0211 98.9187 26.8151C87.1492 7.87152 64.2057 -0.311392 44.9641 0.00878275Z" fill="#F4F7FA"/>
<path d="M70.9948 57.125C71.0335 74.5009 61.7424 88.6807 45.1956 89.1473C44.9399 89.1544 40.7172 89.1466 40.4596 89.1473C23.5566 89.1883 9.82193 74.9176 9.78256 57.2733C9.74319 39.6291 23.4144 25.292 40.3175 25.2514C40.7127 25.2502 44.4232 25.2868 44.8147 25.3013C61.1721 25.9092 70.9558 39.8933 70.9941 57.1254L70.9948 57.125Z" fill="#3B5998"/>
<path d="M46.1108 89.4332C63.0141 89.4332 76.7169 75.1295 76.7169 57.485C76.7169 39.8406 63.0141 25.5369 46.1108 25.5369C29.2075 25.5369 15.5046 39.8406 15.5046 57.485C15.5046 75.1295 29.2075 89.4332 46.1108 89.4332Z" fill="#E7B134"/>
<path style="mix-blend-mode:multiply" opacity="0.3" d="M46.111 88.6281C62.5883 88.6281 75.9458 74.6848 75.9458 57.485C75.9458 40.2852 62.5883 26.3419 46.111 26.3419C29.6336 26.3419 16.2761 40.2852 16.2761 57.485C16.2761 74.6848 29.6336 88.6281 46.111 88.6281Z" fill="#ECA72B"/>
<path d="M46.111 87.6881C62.0909 87.6881 75.0452 74.1657 75.0452 57.485C75.0452 40.8044 62.0909 27.282 46.111 27.282C30.131 27.282 17.1768 40.8044 17.1768 57.485C17.1768 74.1657 30.131 87.6881 46.111 87.6881Z" fill="#E7B134"/>
<path d="M45.4923 87.0426C61.1305 87.0426 73.8078 73.8092 73.8078 57.4851C73.8078 41.161 61.1305 27.9276 45.4923 27.9276C29.8541 27.9276 17.1768 41.161 17.1768 57.4851C17.1768 73.8092 29.8541 87.0426 45.4923 87.0426Z" fill="url(#paint0_linear_58_1591)"/>
<path d="M48.4817 56.6386L70.051 64.9531C70.7533 62.6041 71.132 60.1061 71.132 57.5156C71.132 44.1775 61.0997 33.2852 48.4821 32.6128V56.6386H48.4817Z" fill="#E7B134"/>
<g style="mix-blend-mode:multiply" opacity="0.54">
<path d="M38.3827 56.8141C36.1434 49.6048 44.2395 44.4022 42.9627 35.9994C42.3996 32.2914 40.2076 29.2533 37.512 26.816C24.7688 30.7025 15.4725 43.0044 15.5047 57.5584C15.5441 75.2027 29.2784 89.4734 46.1817 89.4324C50.3261 89.4224 54.2755 88.5509 57.877 86.984C57.355 76.7868 54.2084 71.027 50.8623 67.5565C45.7052 62.2082 40.0898 62.3107 38.3827 56.8133V56.8141Z" fill="#D8DEE8"/>
</g>
<path d="M45.4127 59.827C46.4069 59.827 47.2129 58.9856 47.2129 57.9477C47.2129 56.9098 46.4069 56.0684 45.4127 56.0684C44.4185 56.0684 43.6125 56.9098 43.6125 57.9477C43.6125 58.9856 44.4185 59.827 45.4127 59.827Z" fill="#42B72A"/>
<path d="M45.4128 42.9713C44.7843 42.9713 44.2751 43.5032 44.2751 44.1588V56.8268C44.2751 57.4828 44.7847 58.0143 45.4128 58.0143C46.0408 58.0143 46.5504 57.4824 46.5504 56.8268V44.1588C46.5504 43.5028 46.0408 42.9713 45.4128 42.9713Z" fill="#42B72A"/>
<path d="M45.7066 57.7702L25.3225 51.8128C24.9633 51.7036 24.5685 51.9019 24.4406 52.2553C24.3131 52.6086 24.5006 52.9836 24.8602 53.0924L45.2443 59.0498C45.6035 59.159 45.9983 58.9607 46.1262 58.6073C46.2537 58.254 46.0662 57.879 45.7066 57.7702Z" fill="#42B72A"/>
<path d="M99.9256 52.8714L97.3879 35.8406L91.7152 36.4079C91.2367 36.3195 90.3267 36.8145 90.1115 37.3136L82.6623 54.5691C82.4317 55.1044 82.7856 55.7186 83.3218 55.7149L85.4489 55.6262V95.8475C85.4489 96.5642 85.9727 97.0786 86.6165 96.997L91.7159 98.1237C92.326 98.0455 98.0362 94.9872 98.0362 94.2962V53.9776L99.3257 53.9709C99.8146 53.9683 100.136 53.3798 99.9267 52.8717L99.9256 52.8714Z" fill="#3B5998"/>
<path style="mix-blend-mode:multiply" opacity="0.3" d="M91.0751 55.4451L85.4485 55.6262V95.8475C85.4485 96.5643 85.9723 97.0786 86.6161 96.997L91.7155 98.1238C91.9663 98.0917 93.0852 97.5527 94.3124 96.8826L91.0751 55.4454V55.4451Z" fill="#3B5998"/>
<path d="M105.416 54.262L98.0432 36.276C97.7946 35.6695 97.0477 35.6315 96.7976 36.2148L89.039 54.3142C88.8107 54.8465 89.1609 55.4574 89.6915 55.454L91.075 55.4451V97.0507C91.075 97.7637 91.5936 98.2755 92.2314 98.1935L102.46 96.8785C103.059 96.8013 103.543 96.1819 103.543 95.4938V55.3653L104.821 55.3571C105.305 55.3541 105.623 54.7678 105.416 54.262H105.416Z" fill="#42B72A"/>
<path d="M75.3657 100.332L70.0384 99.1011C69.3679 99.1861 68.8228 98.6777 68.8228 97.9651V65.1104C68.8228 64.3977 69.3679 63.804 70.0384 63.7842L81.4618 63.4503C82.0891 63.432 87.4022 63.7309 87.4022 63.7309L82.5964 96.265C82.5964 96.9512 75.3661 100.332 75.3661 100.332L75.3657 100.332Z" fill="#3B5998"/>
<path d="M87.1263 98.8496L75.8124 100.304C75.1483 100.389 74.6084 99.8839 74.6084 99.1746V65.356C74.6084 64.6467 75.1483 64.0556 75.8124 64.0362L87.1263 63.7015C87.7476 63.6832 88.25 64.2218 88.25 64.905V97.469C88.25 98.1518 87.748 98.7702 87.1263 98.8499V98.8496Z" fill="#42B72A"/>
<path d="M57.5149 102.635L51.8966 101.403C51.1587 101.497 50.5583 100.967 50.5583 100.219L50.7282 77.1976C50.7282 76.4499 51.3285 75.808 52.066 75.7644L64.6162 75.0201C65.3042 74.9794 71.0778 75.7696 71.0778 75.7696L65.6949 98.3507C65.6949 99.0693 58.2116 102.546 57.5149 102.635Z" fill="#3B5998"/>
<path d="M70.2781 101.015L57.8468 102.613C57.116 102.707 56.5217 102.18 56.5217 101.436V77.6807C56.5217 76.9363 57.116 76.2975 57.8468 76.2535L70.2781 75.5077C70.9598 75.4667 71.5106 76.0135 71.5106 76.7287V99.561C71.5106 100.276 70.9598 100.927 70.2781 101.015V101.015Z" fill="#42B72A"/>
<path d="M37.1396 104.984L31.8812 103.944C31.0649 104.047 30.4009 103.494 30.4009 102.707V90.7449C30.4009 89.9584 31.0649 89.261 31.8812 89.188L45.7411 87.9475C46.4996 87.8797 51.7512 88.4906 51.7512 88.4906L47.1127 100.644C47.1127 101.399 37.9086 104.885 37.1392 104.984H37.1396Z" fill="#3B5998"/>
<path d="M51.7517 103.397L38.0287 105.161C37.2207 105.265 36.563 104.715 36.563 103.932V91.2809C36.563 90.4981 37.2203 89.8041 38.0287 89.731L51.7517 88.4906C52.5031 88.4228 53.1098 88.9766 53.1098 89.7273V101.863C53.1098 102.613 52.5027 103.3 51.7517 103.397Z" fill="#42B72A"/>
<path d="M25.0691 95.0972L9.68731 96.6757C9.03077 96.7432 8.46421 97.1543 8.20024 97.6903C8.09938 97.8949 8.04126 98.1174 8.04126 98.3466V104.92C8.04126 105.75 8.74768 106.429 9.68731 106.76L15.1227 107.834C15.9764 107.725 26.5881 103.972 26.5881 103.178L29.137 100.129L31.7171 95.7864C31.7171 95.7864 25.909 95.0103 25.0688 95.0968L25.0691 95.0972Z" fill="#3B5998"/>
<path d="M31.284 106.028L16.057 107.985C15.1587 108.101 14.4275 107.526 14.4275 106.7V99.0754C14.4275 98.2502 15.1587 97.5051 16.057 97.4119L31.284 95.8323C32.116 95.7458 32.788 96.3168 32.788 97.1066V104.404C32.788 105.194 32.116 105.921 31.284 106.028Z" fill="#42B72A"/>
</g>
<defs>
<linearGradient id="paint0_linear_58_1591" x1="10.2753" y1="151.84" x2="64.89" y2="3.76128" gradientUnits="userSpaceOnUse">
<stop stop-color="#EBEFF2"/>
<stop offset="1" stop-color="white"/>
</linearGradient>
<clipPath id="clip0_58_1591">
<rect width="106" height="108" fill="white"/>
</clipPath>
</defs>
</svg>
