<svg width="49" height="51" viewBox="0 0 49 51" fill="none" xmlns="http://www.w3.org/2000/svg">
<path d="M47.6141 26.973C47.6141 37.403 39.1621 46.2446 28.3789 46.7375C17.1796 47.2495 7.77856 38.6239 7.77856 27.4537C7.77856 16.2836 17.1796 7.43108 28.3789 7.6728C39.1621 7.90543 47.6141 16.5429 47.6141 26.973Z" fill="#3B5998"/>
<path d="M48.866 26.973C48.866 37.403 40.4141 46.2446 29.6308 46.7375C18.4316 47.2495 9.03052 38.6239 9.03052 27.4537C9.03052 16.2836 18.4316 7.43108 29.6308 7.6728C40.4141 7.90543 48.866 16.5429 48.866 26.973Z" fill="url(#paint0_linear_58_2278)"/>
<path d="M47.6758 26.9875C47.6758 36.8149 39.7033 45.1301 29.5518 45.5737C19.0324 46.0335 10.2209 37.9213 10.2209 27.4396C10.2209 16.9578 19.0326 8.63283 29.5518 8.8387C39.7033 9.03743 47.6758 17.1601 47.6758 26.9875Z" fill="#3B5998"/>
<g style="mix-blend-mode:multiply" opacity="0.3">
<path style="mix-blend-mode:multiply" opacity="0.3" d="M20.951 18.8201C20.2888 16.6615 20.3192 13.3831 23.5486 8.53955C15.2178 10.9395 9.03052 18.4942 9.03052 27.5311C9.03052 38.7013 18.4316 47.3267 29.6308 46.8148C33.7603 46.6261 37.541 45.2166 40.6305 42.9801C40.5347 40.0011 39.8865 36.7402 38.0641 33.7324C33.0526 25.4622 23.029 25.5925 20.951 18.8203V18.8201Z" fill="#3B5998"/>
</g>
<path d="M17.8419 24.2768V33.9658H15.9293V26.4815L13.6316 27.212V25.7046L17.636 24.2768H17.8419Z" fill="white"/>
<path d="M27.4978 28.2812V29.9547C27.4978 30.6808 27.4203 31.3072 27.2653 31.8341C27.1104 32.3565 26.8868 32.7859 26.5946 33.1224C26.3068 33.4545 25.9637 33.7002 25.5653 33.8596C25.1668 34.0189 24.7241 34.0986 24.2371 34.0986C23.8475 34.0986 23.4845 34.0499 23.148 33.9525C22.8115 33.8507 22.5082 33.6935 22.2382 33.481C21.9725 33.2685 21.7423 33.0007 21.5475 32.6775C21.3572 32.3499 21.2111 31.9603 21.1092 31.5087C21.0074 31.0571 20.9565 30.5391 20.9565 29.9547V28.2812C20.9565 27.5551 21.034 26.9331 21.1889 26.4151C21.3483 25.8927 21.5719 25.4655 21.8596 25.1334C22.1518 24.8014 22.4972 24.5579 22.8956 24.4029C23.2941 24.2436 23.7368 24.1639 24.2238 24.1639C24.6134 24.1639 24.9742 24.2148 25.3063 24.3166C25.6427 24.414 25.946 24.5667 26.2161 24.7748C26.4861 24.9829 26.7163 25.2508 26.9067 25.5784C27.0971 25.9016 27.2432 26.289 27.345 26.7405C27.4468 27.1877 27.4978 27.7012 27.4978 28.2812ZM25.5785 30.2071V28.0222C25.5785 27.6725 25.5586 27.367 25.5188 27.1058C25.4834 26.8446 25.428 26.6232 25.3528 26.4417C25.2775 26.2557 25.1845 26.1052 25.0738 25.9901C24.9632 25.875 24.837 25.7909 24.6953 25.7378C24.5536 25.6846 24.3965 25.6581 24.2238 25.6581C24.0069 25.6581 23.8143 25.7001 23.646 25.7842C23.4822 25.8684 23.3428 26.0034 23.2277 26.1893C23.1126 26.3709 23.024 26.6144 22.962 26.9198C22.9045 27.2209 22.8757 27.5884 22.8757 28.0222V30.2071C22.8757 30.5568 22.8934 30.8645 22.9288 31.1302C22.9687 31.3958 23.0262 31.6238 23.1015 31.8142C23.1812 32.0001 23.2742 32.1529 23.3804 32.2724C23.4911 32.3875 23.6173 32.4716 23.7589 32.5247C23.905 32.5779 24.0644 32.6044 24.2371 32.6044C24.4496 32.6044 24.6378 32.5624 24.8016 32.4783C24.9698 32.3897 25.1115 32.2525 25.2266 32.0665C25.3461 31.8761 25.4347 31.6282 25.4922 31.3227C25.5498 31.0173 25.5785 30.6454 25.5785 30.2071Z" fill="white"/>
<path d="M35.3074 28.2812V29.9547C35.3074 30.6808 35.23 31.3072 35.075 31.8341C34.9201 32.3565 34.6965 32.7859 34.4043 33.1224C34.1165 33.4545 33.7734 33.7002 33.3749 33.8596C32.9765 34.0189 32.5338 34.0986 32.0468 34.0986C31.6572 34.0986 31.2941 34.0499 30.9577 33.9525C30.6212 33.8507 30.3179 33.6935 30.0479 33.481C29.7822 33.2685 29.552 33.0007 29.3572 32.6775C29.1668 32.3499 29.0207 31.9603 28.9189 31.5087C28.8171 31.0571 28.7662 30.5391 28.7662 29.9547V28.2812C28.7662 27.5551 28.8436 26.9331 28.9986 26.4151C29.158 25.8927 29.3816 25.4655 29.6693 25.1334C29.9615 24.8014 30.3069 24.5579 30.7053 24.4029C31.1038 24.2436 31.5465 24.1639 32.0335 24.1639C32.4231 24.1639 32.7839 24.2148 33.1159 24.3166C33.4524 24.414 33.7557 24.5667 34.0257 24.7748C34.2958 24.9829 34.526 25.2508 34.7164 25.5784C34.9068 25.9016 35.0529 26.289 35.1547 26.7405C35.2565 27.1877 35.3074 27.7012 35.3074 28.2812ZM33.3882 30.2071V28.0222C33.3882 27.6725 33.3683 27.367 33.3285 27.1058C33.293 26.8446 33.2377 26.6232 33.1624 26.4417C33.0872 26.2557 32.9942 26.1052 32.8835 25.9901C32.7728 25.875 32.6467 25.7909 32.505 25.7378C32.3633 25.6846 32.2061 25.6581 32.0335 25.6581C31.8165 25.6581 31.624 25.7001 31.4557 25.7842C31.2919 25.8684 31.1525 26.0034 31.0373 26.1893C30.9222 26.3709 30.8337 26.6144 30.7717 26.9198C30.7142 27.2209 30.6854 27.5884 30.6854 28.0222V30.2071C30.6854 30.5568 30.7031 30.8645 30.7385 31.1302C30.7784 31.3958 30.8359 31.6238 30.9112 31.8142C30.9909 32.0001 31.0838 32.1529 31.1901 32.2724C31.3008 32.3875 31.4269 32.4716 31.5686 32.5247C31.7147 32.5779 31.8741 32.6044 32.0468 32.6044C32.2593 32.6044 32.4474 32.5624 32.6112 32.4783C32.7795 32.3897 32.9211 32.2525 33.0363 32.0665C33.1558 31.8761 33.2443 31.6282 33.3019 31.3227C33.3594 31.0173 33.3882 30.6454 33.3882 30.2071Z" fill="white"/>
<path d="M36.5825 26.6675V26.1561C36.5825 25.7887 36.6622 25.4544 36.8216 25.1534C36.9809 24.8523 37.2156 24.611 37.5255 24.4295C37.8354 24.248 38.2161 24.1572 38.6677 24.1572C39.1326 24.1572 39.52 24.248 39.8299 24.4295C40.1442 24.611 40.3789 24.8523 40.5338 25.1534C40.6932 25.4544 40.7729 25.7887 40.7729 26.1561V26.6675C40.7729 27.0261 40.6932 27.3559 40.5338 27.657C40.3789 27.958 40.1464 28.1993 39.8365 28.3808C39.5266 28.5623 39.1437 28.6531 38.6876 28.6531C38.2272 28.6531 37.8398 28.5623 37.5255 28.3808C37.2156 28.1993 36.9809 27.958 36.8216 27.657C36.6622 27.3559 36.5825 27.0261 36.5825 26.6675ZM37.8509 26.1561V26.6675C37.8509 26.8224 37.8797 26.9707 37.9372 27.1124C37.9992 27.2497 38.0922 27.3626 38.2161 27.4511C38.3445 27.5352 38.4995 27.5773 38.681 27.5773C38.8714 27.5773 39.0263 27.5352 39.1459 27.4511C39.2654 27.3626 39.354 27.2497 39.4115 27.1124C39.4691 26.9707 39.4978 26.8224 39.4978 26.6675V26.1561C39.4978 25.9923 39.4668 25.8418 39.4049 25.7046C39.3473 25.5629 39.2566 25.45 39.1326 25.3659C39.0131 25.2773 38.8581 25.233 38.6677 25.233C38.4906 25.233 38.3401 25.2773 38.2161 25.3659C38.0922 25.45 37.9992 25.5629 37.9372 25.7046C37.8797 25.8418 37.8509 25.9923 37.8509 26.1561ZM41.2045 32.1064V31.595C41.2045 31.232 41.2842 30.8999 41.4436 30.5989C41.6074 30.2978 41.8443 30.0565 42.1542 29.875C42.4685 29.6935 42.8537 29.6028 43.3097 29.6028C43.7701 29.6028 44.1553 29.6935 44.4652 29.875C44.7751 30.0565 45.0098 30.2978 45.1692 30.5989C45.3285 30.8999 45.4082 31.232 45.4082 31.595V32.1064C45.4082 32.4694 45.3285 32.8014 45.1692 33.1025C45.0142 33.4036 44.7818 33.6448 44.4719 33.8264C44.162 34.0079 43.779 34.0986 43.323 34.0986C42.8626 34.0986 42.4752 34.0079 42.1608 33.8264C41.8465 33.6448 41.6074 33.4036 41.4436 33.1025C41.2842 32.8014 41.2045 32.4694 41.2045 32.1064ZM42.4796 31.595V32.1064C42.4796 32.2657 42.515 32.4163 42.5858 32.5579C42.6567 32.6996 42.7541 32.8125 42.878 32.8966C43.0064 32.9807 43.1548 33.0228 43.323 33.0228C43.5355 33.0228 43.7015 32.9807 43.8211 32.8966C43.9406 32.8125 44.0225 32.6996 44.0668 32.5579C44.1155 32.4163 44.1398 32.2657 44.1398 32.1064V31.595C44.1398 31.4356 44.1088 31.2873 44.0468 31.1501C43.9849 31.0084 43.8919 30.8955 43.7679 30.8114C43.6484 30.7228 43.4956 30.6786 43.3097 30.6786C43.1238 30.6786 42.9688 30.7228 42.8448 30.8114C42.7253 30.8955 42.6345 31.0084 42.5726 31.1501C42.5106 31.2873 42.4796 31.4356 42.4796 31.595ZM43.7812 25.678L39.0595 33.2353L38.1298 32.7439L42.8515 25.1866L43.7812 25.678Z" fill="white"/>
<mask id="mask0_58_2278" style="mask-type:luminance" maskUnits="userSpaceOnUse" x="0" y="0" width="44" height="33">
<path d="M26.2659 0C7.50417 0 5.3811 16.0266 5.3811 16.0266H0V17.483L10.5781 32.0311L23.5035 15.143H18.4125L25.6168 6.69818C25.6168 6.69818 33.8961 8.17761 36.7538 9.13737C40.4467 10.4989 43.351 13.5887 43.351 13.5887C43.351 13.5887 40.4669 0.000356593 26.2658 0.000356593L26.2659 0Z" fill="white"/>
</mask>
<g mask="url(#mask0_58_2278)">
<path d="M42.9549 16.418V16.4788C42.3951 15.751 41.3923 14.7398 40.7919 14.1541C40.7806 14.1283 40.7619 14.1024 40.7506 14.0765C40.4156 13.3112 39.9636 12.4829 39.3734 11.6561C38.7872 10.8269 38.0423 10.0107 37.1738 9.25917C37.0698 9.16177 36.9496 9.07561 36.8384 8.98355C36.7817 8.9386 36.7245 8.89222 36.6668 8.84726L36.5826 8.77876C36.553 8.75592 36.5225 8.73541 36.4929 8.71329C36.3737 8.6273 36.2546 8.54042 36.1345 8.45283L36.0449 8.38736L35.9506 8.32653C35.8881 8.2855 35.8259 8.24429 35.7634 8.20397C35.5173 8.03414 35.2516 7.88714 34.9926 7.73194C34.8606 7.65648 34.7223 7.58726 34.588 7.51572C34.5216 7.47986 34.4537 7.44329 34.3857 7.40833C34.3161 7.3755 34.2458 7.34214 34.177 7.30932C33.067 6.77556 31.8562 6.38952 30.6144 6.17705C30.4592 6.15261 30.3042 6.12835 30.1474 6.10391C29.9915 6.08339 29.8331 6.07037 29.678 6.05289L29.4429 6.02773L29.2071 6.0156L28.9712 6.00186C28.8929 5.99812 28.8153 5.99045 28.7361 5.99205C28.5793 5.99134 28.4227 5.98973 28.2652 5.98902C28.2268 5.98902 28.1852 5.9867 28.1492 5.98902L28.0445 5.99437L27.835 6.00508L27.627 6.01489C27.6087 6.0156 27.5958 6.0156 27.5719 6.01721L27.3584 6.03237L27.0729 6.05146L26.8594 6.06662L26.8234 6.06894L26.8105 6.06965C26.8105 6.06965 26.7361 6.06965 26.861 6.07197L26.3995 6.13673C26.3235 6.14815 26.2468 6.15493 26.1708 6.17098L25.9446 6.21433L25.7182 6.25697L25.6055 6.27838C25.5678 6.28516 25.5311 6.29586 25.4943 6.30424C25.3464 6.3401 25.1985 6.37507 25.0514 6.41164C24.977 6.4268 24.9051 6.45124 24.833 6.47176L24.6172 6.53651L24.4013 6.59824L24.1903 6.67209C24.0495 6.7224 23.9088 6.76646 23.7721 6.8198C23.6362 6.87457 23.4995 6.92952 23.3643 6.985C22.2888 7.44026 21.3219 8.02896 20.4991 8.70115L20.3439 8.82442L20.1967 8.95608C20.0991 9.04296 19.9983 9.12591 19.9056 9.21493C19.9017 9.21796 19.8984 9.2226 19.8943 9.22564C19.7136 9.40385 19.5304 9.57136 19.3681 9.75564C19.3249 9.8006 19.2824 9.84627 19.2409 9.89194L19.1768 9.95901L19.1176 10.0306C19.0384 10.1235 18.9601 10.2172 18.8818 10.3092C18.8625 10.332 18.8418 10.3542 18.8225 10.3777L18.769 10.4492C18.7323 10.4972 18.6962 10.5452 18.6602 10.5916C18.5899 10.6876 18.513 10.7759 18.4499 10.8749C17.9158 11.6363 17.5087 12.3977 17.232 13.1241C16.9528 13.8489 16.7874 14.529 16.6922 15.1296C16.6818 15.2051 16.6713 15.2789 16.6609 15.3519C16.6522 15.4241 16.637 15.495 16.6338 15.5658C16.6219 15.7074 16.6097 15.8421 16.5978 15.9709C16.5898 16.1019 16.5898 16.2274 16.5842 16.3455C16.5819 16.405 16.5778 16.4628 16.5771 16.5184C16.5794 16.5755 16.581 16.6312 16.5819 16.6843C16.5835 16.7917 16.5851 16.8929 16.5867 16.9874C16.586 17.014 16.5908 17.0277 16.5924 17.0461C16.5947 17.0636 16.5972 17.0811 16.5996 17.0978C16.6028 17.1314 16.6076 17.1267 16.6108 17.1572C16.6131 17.1831 16.6163 17.1952 16.6188 17.1952H21.8831L18.6845 20.5721L11.2483 28.3156L0.612549 17.1952H6.20469C6.21271 17.1952 6.22146 17.1039 6.2302 17.0324C6.25178 16.8779 6.27497 16.727 6.30048 16.5436C6.31493 16.4522 6.3276 16.367 6.34294 16.2687C6.35097 16.2207 6.35811 16.175 6.36613 16.1247C6.37327 16.0753 6.38058 16.0219 6.39093 15.9786C6.43018 15.7943 6.47085 15.6002 6.51402 15.3931C6.53721 15.2903 6.55969 15.1853 6.5836 15.0772C6.60929 14.9691 6.63961 14.8593 6.66994 14.7468C6.73077 14.5222 6.78982 14.2862 6.8635 14.0432C6.94181 13.8018 7.02352 13.5513 7.10736 13.2909C7.14822 13.16 7.20174 13.0313 7.25133 12.8981C7.30164 12.7671 7.35373 12.6323 7.40653 12.4953C7.84074 11.4103 8.43337 10.2286 9.2258 9.04064C10.015 7.852 11.0203 6.66799 12.2134 5.57015C12.3581 5.42922 12.5181 5.3006 12.6724 5.16591C12.7507 5.09972 12.8283 5.03265 12.9066 4.96557L13.0258 4.86513L13.1473 4.76916C13.3112 4.64196 13.4768 4.51334 13.6414 4.38472L13.7661 4.28874L13.8956 4.1974C13.9829 4.13568 14.0692 4.07485 14.1563 4.01383C14.4977 3.7648 14.8649 3.5402 15.2295 3.30882C15.4134 3.19607 15.6038 3.091 15.7932 2.98218C15.8867 2.92884 15.982 2.8755 16.077 2.82073C16.1746 2.77042 16.2722 2.72029 16.3696 2.66999C17.9258 1.85829 19.6451 1.2423 21.43 0.873732C21.6531 0.831809 21.8777 0.789173 22.1016 0.74725C22.3255 0.707646 22.5535 0.680173 22.779 0.647527L23.1181 0.601858L23.4596 0.569926L23.8001 0.538707C23.9137 0.528895 24.0265 0.516586 24.1408 0.512839C24.3679 0.503028 24.5959 0.476982 24.8237 0.46717C24.8798 0.464851 24.9372 0.444336 24.9941 0.444336H25.1652L25.505 0.462532L25.8449 0.473236C25.9583 0.473236 26.072 0.487685 26.1847 0.493037L26.8605 0.531928C27.0141 0.534247 26.9133 0.535674 26.9523 0.536566L26.9698 0.538885L27.0059 0.542631L27.0762 0.551729L27.2185 0.568498L27.5016 0.602037L27.644 0.618806L27.7143 0.62719L27.8015 0.638607L28.1597 0.688915L28.5179 0.740649L28.6954 0.76723C28.7538 0.776329 28.8059 0.788637 28.8617 0.799163C29.0801 0.843405 29.2982 0.888182 29.5166 0.93171C29.6254 0.952226 29.7324 0.982018 29.8397 1.0086L30.162 1.09012L30.4819 1.17165L30.7976 1.26691C31.0071 1.33167 31.2174 1.3925 31.4229 1.46261C31.6284 1.53575 31.8323 1.6089 32.0362 1.68186C33.6541 2.29411 35.1301 3.11098 36.3992 4.062C36.4792 4.12069 36.5584 4.1801 36.6376 4.23861C36.7152 4.29944 36.7912 4.36117 36.8672 4.42361C37.0192 4.54688 37.1719 4.66569 37.3181 4.79217C37.6068 5.05031 37.8947 5.29774 38.1578 5.56569C38.2249 5.63116 38.2906 5.69735 38.3578 5.7621L38.4561 5.85951L38.5505 5.96083C38.6761 6.09641 38.7999 6.2311 38.9223 6.36436L39.0141 6.4648L39.1021 6.56827C39.1588 6.63749 39.2172 6.70617 39.2741 6.77467C39.3875 6.91257 39.5069 7.04351 39.6091 7.18587C40.1889 7.9312 40.6798 8.68653 41.086 9.43132C41.2844 9.79293 41.461 10.1531 41.6171 10.5087C42.0993 11.5944 42.4088 12.6276 42.6038 13.5481C42.6254 13.6639 42.6486 13.7774 42.6702 13.8892C42.6909 14.0004 42.7157 14.1094 42.7294 14.2182C42.7597 14.4351 42.7902 14.6431 42.8182 14.8433C42.8423 15.0443 42.855 15.2377 42.8726 15.4213C42.8798 15.5126 42.8894 15.6018 42.8949 15.6901C42.8982 15.777 42.9174 15.8623 42.9213 15.9459C42.9262 16.1118 42.9542 16.2712 42.9542 16.418H42.9549Z" fill="url(#paint1_linear_58_2278)"/>
<path style="mix-blend-mode:multiply" opacity="0.4" d="M42.9548 16.4177V16.4785C42.395 15.7507 41.3923 14.7396 40.7918 14.1539C40.7806 14.128 40.7618 14.1022 40.7506 14.0763C40.4156 13.311 39.9635 12.4827 39.3734 11.6558C38.7872 10.8266 38.0422 10.0105 37.1738 9.25891C37.0698 9.16151 36.9495 9.07535 36.8384 8.98329C36.7817 8.93834 36.7244 8.89196 36.6668 8.847L36.5826 8.7785C36.553 8.75566 36.5225 8.73515 36.4928 8.71303C36.3737 8.62704 36.2545 8.54016 36.1344 8.45257L36.0449 8.3871L35.9505 8.32627C35.8881 8.28524 35.8258 8.24403 35.7634 8.20371C35.5172 8.03388 35.2516 7.88688 34.9925 7.73168C34.8605 7.65622 34.7223 7.587 34.5879 7.51546C34.5216 7.47961 34.4536 7.44303 34.3856 7.40807C34.3161 7.37524 34.2458 7.34188 34.1769 7.30906C33.0669 6.7753 31.8562 6.38926 30.6144 6.17679C30.4592 6.15235 30.3041 6.12809 30.1473 6.10365C29.9914 6.08313 29.833 6.07011 29.678 6.05263L29.4429 6.02747L29.207 6.01534L28.9712 6.00161C28.8929 5.99786 28.8153 5.99019 28.7361 5.99179C28.5793 5.99108 28.4226 5.98947 28.2651 5.98876C28.2267 5.98876 28.1852 5.98644 28.1491 5.98876L28.0444 5.99411L27.835 6.00482L27.627 6.01463C27.6086 6.01534 27.5958 6.01534 27.5719 6.01695L27.3583 6.03211L27.0729 6.0512L26.8593 6.06636L26.8233 6.06868L26.8105 6.0694C26.8105 6.0694 26.7361 6.0694 26.861 6.07171L26.3994 6.13647C26.3235 6.14789 26.2467 6.15467 26.1707 6.17072L25.9445 6.21407L25.7182 6.25671L25.6054 6.27812C25.5678 6.2849 25.531 6.2956 25.4943 6.30399C25.3464 6.33984 25.1985 6.37481 25.0513 6.41138C24.9769 6.42654 24.905 6.45098 24.833 6.4715L24.6171 6.53625L24.4012 6.59798L24.1902 6.67183C24.0495 6.72214 23.9087 6.76621 23.7721 6.81955C23.6361 6.87431 23.4995 6.92926 23.3642 6.98474C22.2887 7.44 21.3218 8.0287 20.499 8.7009L20.3438 8.82417L20.1967 8.95582C20.0991 9.0427 19.9983 9.12565 19.9055 9.21467C19.9016 9.2177 19.8984 9.22234 19.8943 9.22538C22.2573 6.43939 26.0853 4.62939 30.4051 4.62939C34.7249 4.62939 38.741 6.52912 41.0872 9.43089C41.2856 9.79249 41.4622 10.1527 41.6183 10.5082C42.1005 11.5939 42.41 12.6272 42.605 13.5477C42.6266 13.6635 42.6498 13.7769 42.6714 13.8888C42.6921 13.9999 42.7169 14.1089 42.7306 14.2177C42.7609 14.4347 42.7914 14.6427 42.8194 14.8428C42.8435 15.0439 42.8562 15.2373 42.8738 15.4208C42.881 15.5122 42.8906 15.6014 42.8961 15.6897C42.8993 15.7766 42.9186 15.8618 42.9225 15.9455C42.9274 16.1114 42.9554 16.2707 42.9554 16.4175L42.9548 16.4177Z" fill="url(#paint2_linear_58_2278)"/>
</g>
<path d="M3.84277 48.4229V50.0486C3.84277 50.5739 7.12452 50.9998 11.1727 50.9998C15.2208 50.9998 18.5025 50.5739 18.5025 50.0486V48.4229H3.84277Z" fill="url(#paint3_linear_58_2278)"/>
<path d="M18.5025 48.4229C18.5025 48.9483 15.2208 49.3741 11.1727 49.3741C7.12452 49.3741 3.84277 48.9483 3.84277 48.4229C3.84277 47.8975 7.12452 47.4717 11.1727 47.4717C15.2208 47.4717 18.5025 47.8975 18.5025 48.4229Z" fill="#FFDB44"/>
<path d="M11.1728 49.4399C7.58759 49.4399 3.83862 49.0974 3.83862 48.437C3.83862 48.4008 3.85165 48.3369 3.88786 48.3369C3.92407 48.3369 3.90855 48.3869 3.90855 48.4231C3.90855 48.842 6.89185 49.3086 11.1728 49.3086C15.4537 49.3086 18.437 48.842 18.437 48.4231C18.437 48.3869 18.4433 48.3528 18.4795 48.3528C18.5157 48.3528 18.5069 48.4011 18.5069 48.4375C18.5069 49.0979 14.758 49.4399 11.1728 49.4399Z" fill="url(#paint4_linear_58_2278)"/>
<path d="M10.4801 48.476C10.552 48.4262 10.6285 48.3772 10.7104 48.3286C10.7916 48.2803 10.8972 48.2364 11.0253 48.1973C11.1541 48.1583 11.3151 48.1265 11.5084 48.1017C11.7017 48.0771 11.9435 48.0641 12.2321 48.0626C12.5154 48.0612 12.781 48.0703 13.0299 48.0896C13.278 48.1088 13.4969 48.1379 13.686 48.1765C13.8742 48.215 14.028 48.2626 14.1466 48.3194C14.2644 48.3763 14.3345 48.4412 14.3571 48.5145L15.1824 48.5229C15.2423 48.5233 15.2953 48.5281 15.3406 48.5375C15.3867 48.547 15.4091 48.5588 15.4091 48.5732L15.4095 48.6412L14.3484 48.631C14.3111 48.7143 14.2164 48.7903 14.0639 48.8594C13.9122 48.9286 13.7183 48.9883 13.4821 49.0388L13.0957 48.9851C13.0611 48.9798 13.0327 48.9732 13.0104 48.965C12.9881 48.9569 12.9774 48.948 12.9773 48.9384C12.9773 48.9254 13.007 48.9104 13.0668 48.8936C13.1266 48.8768 13.194 48.856 13.2691 48.8313C13.3442 48.8067 13.4179 48.7775 13.4905 48.7438C13.5626 48.7102 13.6107 48.6699 13.6357 48.6232L11.1312 48.5984C11.0654 48.6467 10.9912 48.6943 10.91 48.7411C10.8281 48.7878 10.72 48.8299 10.5852 48.8672C10.4503 48.9047 10.2822 48.9348 10.0812 48.9582C9.87943 48.9814 9.62682 48.9939 9.32141 48.9953C9.09182 48.9964 8.86847 48.9876 8.64958 48.9692C8.43069 48.9507 8.23624 48.923 8.0664 48.8861C7.89657 48.8492 7.75743 48.8035 7.64807 48.7491C7.53961 48.6947 7.47859 48.6323 7.46593 48.5616L6.78642 48.5547C6.72648 48.5543 6.6735 48.5497 6.62587 48.5406C6.57895 48.5315 6.55504 48.5195 6.55504 48.5044L6.55469 48.4364L7.48359 48.4453C7.52462 48.3738 7.60882 48.3113 7.73762 48.2582C7.86625 48.205 8.02341 48.1577 8.20912 48.1163L8.52024 48.1592C8.61479 48.1724 8.66171 48.1879 8.66171 48.2057C8.66171 48.2154 8.64262 48.2273 8.60355 48.2416C8.56377 48.2558 8.51774 48.273 8.46405 48.2928C8.41124 48.3126 8.35915 48.3359 8.30938 48.3625C8.25889 48.3891 8.22143 48.4194 8.19628 48.4532L10.4795 48.4758L10.4801 48.476ZM8.18807 48.5686C8.2068 48.6132 8.24837 48.6515 8.31152 48.6838C8.37467 48.7161 8.45299 48.7427 8.54753 48.7636C8.64208 48.7844 8.74805 48.7996 8.86561 48.8094C8.98389 48.8192 9.10752 48.8237 9.2365 48.8231C9.38688 48.8224 9.51818 48.8158 9.63021 48.8037C9.74153 48.7914 9.83965 48.7748 9.92474 48.7538C10.0091 48.7327 10.0835 48.7084 10.1463 48.6806C10.2091 48.6528 10.2649 48.6226 10.3156 48.5902L8.18825 48.5686H8.18807ZM13.64 48.5077C13.6214 48.4626 13.5758 48.423 13.5051 48.3889C13.4343 48.355 13.3435 48.3263 13.2336 48.3033C13.1237 48.2801 12.9954 48.263 12.8486 48.2516C12.7027 48.2403 12.5414 48.235 12.3648 48.2359C12.2082 48.2366 12.0724 48.2437 11.9595 48.2569C11.8468 48.2703 11.7485 48.288 11.665 48.3104C11.5822 48.3327 11.5108 48.3588 11.4534 48.3886C11.3952 48.4184 11.3408 48.4503 11.2911 48.4842L13.6396 48.5076L13.64 48.5077Z" fill="#FFDB44"/>
<path d="M11.1738 47.5747C7.90559 47.5747 4.50253 47.8623 3.95825 48.4191C3.97948 48.4387 3.99928 48.4595 4.01766 48.4817C4.47649 48.0951 7.28638 47.706 11.1738 47.706C15.0612 47.706 18.0159 48.1154 18.3617 48.5115C18.3786 48.4897 18.3968 48.469 18.4164 48.4494C17.9669 47.873 14.5 47.5747 11.1736 47.5747H11.1738Z" fill="#FFDB44"/>
<path d="M1.80518 46.7153V48.341C1.80518 48.8664 5.08692 49.2922 9.13505 49.2922C13.1832 49.2922 16.4649 48.8664 16.4649 48.341V46.7153H1.80518Z" fill="#FFDB44"/>
<path d="M16.4652 46.7154C16.4652 47.2407 13.1834 47.6666 9.1353 47.6666C5.08717 47.6666 1.80542 47.2407 1.80542 46.7154C1.80542 46.19 5.08717 45.7642 9.1353 45.7642C13.1834 45.7642 16.4652 46.19 16.4652 46.7154Z" fill="#FFDB44"/>
<path d="M9.13494 47.7319C5.54974 47.7319 1.80078 47.3894 1.80078 46.729C1.80078 46.6928 1.8138 46.6289 1.85002 46.6289C1.88623 46.6289 1.87071 46.6787 1.87071 46.7151C1.87071 47.1339 4.85401 47.6006 9.13494 47.6006C13.4159 47.6006 16.3992 47.1339 16.3992 46.7151C16.3992 46.6789 16.4054 46.6448 16.4416 46.6448C16.4778 46.6448 16.4691 46.6931 16.4691 46.7295C16.4691 47.3899 12.7201 47.7319 9.13494 47.7319Z" fill="#FFDB44"/>
<path d="M8.44237 46.7685C8.51427 46.7187 8.5908 46.6696 8.67268 46.6211C8.75385 46.5728 8.85946 46.5289 8.98755 46.4898C9.11635 46.4507 9.27744 46.419 9.47082 46.3942C9.6642 46.3696 9.90592 46.3566 10.1946 46.3551C10.4779 46.3537 10.7435 46.3628 10.9923 46.3821C11.2405 46.4013 11.4594 46.4304 11.6485 46.4689C11.8369 46.5075 11.9905 46.5551 12.1091 46.6118C12.2268 46.6687 12.2969 46.7337 12.3196 46.807L13.1449 46.8154C13.2048 46.8157 13.2578 46.8206 13.3031 46.83C13.3493 46.8395 13.3716 46.8512 13.3716 46.8657L13.372 46.9337L12.3109 46.9235C12.2736 47.0068 12.1788 47.0828 12.0263 47.1518C11.8747 47.2209 11.6808 47.2806 11.4446 47.3313L11.0582 47.2776C11.0236 47.2723 10.9952 47.2657 10.9729 47.2574C10.9506 47.2494 10.9397 47.2405 10.9397 47.2309C10.9397 47.2178 10.9695 47.2029 11.0293 47.1863C11.089 47.1695 11.1565 47.1486 11.2316 47.124C11.3067 47.0994 11.3802 47.0701 11.453 47.0364C11.525 47.0027 11.5732 46.9626 11.5982 46.9158L9.09387 46.891C9.02804 46.9394 8.95383 46.987 8.87266 47.0337C8.79078 47.0805 8.68267 47.1226 8.5478 47.1599C8.41294 47.1972 8.24489 47.2275 8.04384 47.2508C7.84208 47.274 7.58947 47.2865 7.28406 47.288C7.05446 47.289 6.83111 47.2805 6.61222 47.2619C6.39333 47.2434 6.19906 47.2157 6.02905 47.1788C5.85922 47.1418 5.72007 47.0962 5.61071 47.0418C5.50225 46.9874 5.44124 46.9249 5.42857 46.8543L4.74907 46.8473C4.68913 46.847 4.63614 46.8423 4.58851 46.8332C4.5416 46.8241 4.51787 46.8122 4.51769 46.797L4.51733 46.729L5.44624 46.738C5.48727 46.6664 5.57147 46.604 5.70027 46.5508C5.82889 46.4977 5.98606 46.4504 6.17177 46.409L6.48289 46.4516C6.57744 46.4648 6.62435 46.4804 6.62435 46.4982C6.62435 46.5078 6.60526 46.5198 6.5662 46.5341C6.52641 46.5483 6.48039 46.5655 6.42669 46.5853C6.37389 46.6051 6.3218 46.6284 6.27202 46.655C6.22154 46.6816 6.18407 46.7117 6.15892 46.7456L8.44219 46.7683L8.44237 46.7685ZM6.15036 46.8611C6.16909 46.9057 6.21066 46.944 6.27381 46.9763C6.33696 47.0086 6.41527 47.0352 6.50982 47.056C6.60437 47.0769 6.71034 47.0921 6.8279 47.1019C6.94618 47.1115 7.0698 47.1162 7.19878 47.1156C7.34917 47.1149 7.48047 47.1083 7.5925 47.0962C7.70382 47.0839 7.80194 47.0673 7.88703 47.0464C7.97141 47.0254 8.04562 47.0011 8.1086 46.9733C8.17139 46.9454 8.22723 46.9153 8.27789 46.8828L6.15036 46.8614V46.8611ZM11.6023 46.8002C11.5835 46.7551 11.5381 46.7155 11.4674 46.6814C11.3966 46.6475 11.306 46.6188 11.1959 46.5958C11.086 46.5726 10.9577 46.5555 10.8111 46.5442C10.6652 46.533 10.5039 46.5276 10.3273 46.5285C10.1707 46.5292 10.0349 46.5364 9.92198 46.5496C9.80923 46.563 9.71094 46.5806 9.62745 46.6031C9.54467 46.6254 9.47332 46.6514 9.41587 46.6812C9.35772 46.711 9.30331 46.7428 9.25353 46.7769L11.6021 46.8002H11.6023Z" fill="#FFDB44"/>
<path d="M9.13618 45.8672C5.86799 45.8672 2.46494 46.1548 1.92065 46.7115C1.94188 46.7311 1.96169 46.7522 1.98006 46.7741C2.43889 46.3876 5.24879 45.9985 9.13618 45.9985C13.0236 45.9985 15.9783 46.4079 16.3241 46.8039C16.341 46.7822 16.3592 46.7615 16.3788 46.7419C15.9293 46.1655 12.4624 45.8672 9.136 45.8672H9.13618Z" fill="#FFDB44"/>
<path d="M3.56348 45.0127V46.6384C3.56348 47.1638 6.84523 47.5896 10.8934 47.5896C14.9415 47.5896 18.2232 47.1638 18.2232 46.6384V45.0127H3.56348Z" fill="url(#paint5_linear_58_2278)"/>
<path d="M18.2232 45.0127C18.2232 45.5381 14.9415 45.9639 10.8934 45.9639C6.84523 45.9639 3.56348 45.5381 3.56348 45.0127C3.56348 44.4873 6.84523 44.0615 10.8934 44.0615C14.9415 44.0615 18.2232 44.4873 18.2232 45.0127Z" fill="#FFDB44"/>
<path d="M10.8935 46.0293C7.30829 46.0293 3.55933 45.6869 3.55933 45.0263C3.55933 44.9901 3.57235 44.9263 3.60856 44.9263C3.64478 44.9263 3.62926 44.976 3.62926 45.0124C3.62926 45.4313 6.61255 45.898 10.8935 45.898C15.1744 45.898 18.1577 45.4313 18.1577 45.0124C18.1577 44.9762 18.164 44.9421 18.2002 44.9421C18.2364 44.9421 18.2276 44.9905 18.2276 45.0269C18.2276 45.6873 14.4787 46.0293 10.8935 46.0293Z" fill="#FFDB44"/>
<path d="M10.2006 45.0653C10.2725 45.0156 10.349 44.9665 10.4309 44.918C10.5121 44.8696 10.6177 44.8258 10.7458 44.7867C10.8746 44.7476 11.0357 44.7159 11.2291 44.6911C11.4224 44.6664 11.6642 44.6534 11.9528 44.652C12.2361 44.6506 12.5017 44.6597 12.7506 44.6789C12.9987 44.6982 13.2176 44.7273 13.4067 44.7658C13.5951 44.8044 13.7487 44.852 13.8673 44.9087C13.9851 44.9656 14.0552 45.0306 14.0778 45.1039L14.9031 45.1123C14.963 45.1126 15.016 45.1174 15.0613 45.1269C15.1075 45.1363 15.1298 45.1481 15.1298 45.1626L15.1302 45.2305L14.0691 45.2204C14.0318 45.3037 13.9371 45.3797 13.7846 45.4487C13.6329 45.5178 13.439 45.5775 13.2028 45.6282L12.8164 45.5745C12.7818 45.5691 12.7534 45.5625 12.7311 45.5543C12.7088 45.5463 12.698 45.5374 12.698 45.5277C12.698 45.5147 12.7277 45.4997 12.7875 45.4831C12.8473 45.4664 12.9147 45.4455 12.9898 45.4209C13.0649 45.3963 13.1384 45.367 13.2112 45.3333C13.2833 45.2996 13.3314 45.2594 13.3564 45.2127L10.8519 45.1879C10.7861 45.2362 10.7119 45.2839 10.6307 45.3306C10.5488 45.3774 10.4407 45.4195 10.3059 45.4567C10.171 45.494 10.0029 45.5243 9.8019 45.5477C9.60013 45.5711 9.34752 45.5834 9.04211 45.5848C8.81252 45.5859 8.58917 45.5773 8.37028 45.5588C8.15139 45.5402 7.95694 45.5126 7.78711 45.4756C7.61728 45.4387 7.47813 45.3931 7.36877 45.3386C7.26031 45.2842 7.1993 45.2218 7.18663 45.1511L6.50713 45.1442C6.44718 45.1438 6.3942 45.1392 6.34657 45.1301C6.29965 45.121 6.27575 45.109 6.27575 45.0939L6.27539 45.0259L7.20447 45.0348C7.2455 44.9633 7.3297 44.9009 7.4585 44.8477C7.58713 44.7945 7.74429 44.7473 7.93 44.7059L8.24112 44.7485C8.33567 44.7617 8.38259 44.7772 8.38259 44.7951C8.38259 44.8047 8.3635 44.8167 8.32443 44.8309C8.28465 44.8452 8.23862 44.8623 8.18493 44.8821C8.13212 44.9019 8.08003 44.9253 8.03026 44.9519C7.97977 44.9785 7.94231 45.0088 7.91716 45.0425L10.2004 45.0652L10.2006 45.0653ZM7.90859 45.1579C7.92733 45.2025 7.96889 45.2409 8.03204 45.2732C8.09519 45.3055 8.17351 45.332 8.26806 45.3529C8.36261 45.3738 8.46857 45.389 8.58614 45.3988C8.70441 45.4084 8.82804 45.413 8.95702 45.4125C9.10741 45.4118 9.2387 45.4052 9.35074 45.3931C9.46205 45.3807 9.56017 45.3642 9.64527 45.3433C9.72965 45.3222 9.80404 45.298 9.86683 45.2701C9.92963 45.2423 9.98546 45.2122 10.0361 45.1797L7.90877 45.1583L7.90859 45.1579ZM13.3605 45.0971C13.342 45.052 13.2965 45.0124 13.2256 44.9783C13.1548 44.9444 13.064 44.9157 12.9541 44.8927C12.8442 44.8695 12.716 44.8523 12.5693 44.8409C12.4234 44.8297 12.2621 44.8243 12.0855 44.8252C11.9289 44.8259 11.7931 44.8331 11.6802 44.8463C11.5675 44.8597 11.4692 44.8773 11.3857 44.8998C11.3029 44.9221 11.2316 44.9481 11.1741 44.9779C11.116 45.0077 11.0615 45.0395 11.0118 45.0735L13.3603 45.0969L13.3605 45.0971Z" fill="#FFDB44"/>
<path d="M10.8942 44.1641C7.62605 44.1641 4.22299 44.4516 3.67871 45.0084C3.69994 45.028 3.71974 45.0491 3.73812 45.071C4.19695 44.6844 7.00684 44.2954 10.8942 44.2954C14.7816 44.2954 17.7364 44.7048 18.0821 45.1008C18.0991 45.079 18.1173 45.0584 18.1369 45.0387C17.6873 44.4623 14.2204 44.1641 10.8941 44.1641H10.8942Z" fill="url(#paint6_linear_58_2278)"/>
<path d="M4.63013 43.3047V44.9304C4.63013 45.4558 7.91188 45.8816 11.96 45.8816C16.0081 45.8816 19.2899 45.4558 19.2899 44.9304V43.3047H4.63013Z" fill="#FFDB44"/>
<path d="M11.9598 44.2559C16.0079 44.2559 19.2896 43.83 19.2896 43.3047C19.2896 42.7794 16.0079 42.3535 11.9598 42.3535C7.91158 42.3535 4.62988 42.7794 4.62988 43.3047C4.62988 43.83 7.91158 44.2559 11.9598 44.2559Z" fill="url(#paint7_linear_58_2278)"/>
<path d="M11.9599 44.3218C8.3747 44.3218 4.62573 43.9792 4.62573 43.3188C4.62573 43.2826 4.63876 43.2188 4.67497 43.2188C4.71118 43.2188 4.69566 43.2687 4.69566 43.3049C4.69566 43.7238 7.67896 44.1905 11.9599 44.1905C16.2408 44.1905 19.2241 43.7238 19.2241 43.3049C19.2241 43.2687 19.2304 43.2346 19.2666 43.2346C19.3028 43.2346 19.2941 43.283 19.2941 43.3194C19.2941 43.9798 15.5451 44.3218 11.9599 44.3218Z" fill="url(#paint8_linear_58_2278)"/>
<path d="M11.2673 43.3578C11.3392 43.308 11.4157 43.259 11.4976 43.2105C11.5788 43.1621 11.6846 43.1182 11.8125 43.0792C11.9413 43.0401 12.1024 43.0083 12.2958 42.9835C12.4891 42.9589 12.7309 42.9459 13.0195 42.9445C13.3028 42.9431 13.5684 42.9522 13.8173 42.9714C14.0654 42.9907 14.2843 43.0198 14.4734 43.0583C14.6616 43.0968 14.8154 43.1445 14.934 43.2012C15.0518 43.2581 15.1219 43.323 15.1446 43.3964L15.9698 43.4047C16.0297 43.4051 16.0827 43.4099 16.128 43.4194C16.1741 43.4288 16.1965 43.4406 16.1965 43.455L16.1969 43.523L15.1358 43.5128C15.0985 43.5962 15.0038 43.6722 14.8513 43.7412C14.6996 43.8102 14.5057 43.87 14.2695 43.9207L13.8831 43.867C13.8485 43.8616 13.8202 43.855 13.7979 43.8468C13.7756 43.8388 13.7648 43.8299 13.7647 43.8202C13.7647 43.8072 13.7945 43.7922 13.8542 43.7756C13.914 43.7589 13.9814 43.738 14.0565 43.7134C14.1316 43.6887 14.2051 43.6595 14.2779 43.6258C14.35 43.5922 14.3982 43.5519 14.4231 43.5052L11.9188 43.4804C11.853 43.5287 11.7788 43.5764 11.6976 43.6231C11.6157 43.6698 11.5076 43.7119 11.3728 43.7492C11.2379 43.7865 11.0698 43.8168 10.8688 43.8402C10.667 43.8634 10.4144 43.8759 10.109 43.8773C9.87941 43.8784 9.65606 43.8696 9.43717 43.8513C9.21828 43.8327 9.02401 43.8051 8.854 43.7681C8.68417 43.7312 8.54502 43.6855 8.43567 43.6311C8.3272 43.5767 8.26619 43.5143 8.25352 43.4436L7.57402 43.4367C7.51408 43.4363 7.4611 43.4317 7.41346 43.4226C7.36655 43.4135 7.34282 43.4015 7.34264 43.3864L7.34229 43.3184L8.27119 43.3273C8.31222 43.2558 8.39642 43.1933 8.52522 43.1402C8.65402 43.087 8.81101 43.0397 8.99672 42.9984L9.30784 43.041C9.40239 43.0542 9.4493 43.0699 9.4493 43.0876C9.4493 43.0972 9.43022 43.1091 9.39115 43.1234C9.35137 43.1377 9.30534 43.1548 9.25164 43.1746C9.19884 43.1944 9.14675 43.2178 9.09697 43.2444C9.04649 43.2709 9.00903 43.3013 8.98387 43.335L11.2671 43.3578H11.2673ZM8.97531 43.4504C8.99404 43.495 9.03561 43.5334 9.09876 43.5657C9.16191 43.5981 9.24023 43.6245 9.33478 43.6454C9.42932 43.6663 9.53529 43.6814 9.65285 43.6912C9.77113 43.7011 9.89476 43.7055 10.0237 43.705C10.1741 43.7043 10.3054 43.6977 10.4175 43.6855C10.5288 43.6732 10.6269 43.6566 10.712 43.6356C10.7964 43.6145 10.8708 43.5903 10.9335 43.5624C10.9963 43.5346 11.0522 43.5045 11.1028 43.472L8.97531 43.4506V43.4504ZM14.4272 43.3896C14.4085 43.3444 14.363 43.3048 14.2924 43.2708C14.2215 43.2369 14.1309 43.2081 14.021 43.1851C13.9111 43.1619 13.7829 43.1448 13.6362 43.1336C13.4903 43.1223 13.329 43.117 13.1524 43.1179C12.9958 43.1186 12.86 43.1257 12.7471 43.1389C12.6344 43.1523 12.5361 43.17 12.4526 43.1924C12.3698 43.2147 12.2984 43.2408 12.241 43.2706C12.1828 43.3004 12.1284 43.3323 12.0787 43.3662L14.4272 43.3896Z" fill="#FFDB44"/>
<path d="M11.9609 42.4565C8.6927 42.4565 5.28964 42.7441 4.74536 43.3009C4.76659 43.3205 4.78639 43.3414 4.80494 43.3635C5.26378 42.9769 8.07367 42.5878 11.9611 42.5878C15.8485 42.5878 18.8032 42.9973 19.1489 43.3933C19.1659 43.3715 19.1841 43.3508 19.2037 43.3312C18.7542 42.7548 15.2872 42.4565 11.9609 42.4565Z" fill="url(#paint9_linear_58_2278)"/>
<path d="M3.84277 41.4624V43.0881C3.84277 43.6135 7.12452 44.0393 11.1727 44.0393C15.2208 44.0393 18.5025 43.6135 18.5025 43.0881V41.4624H3.84277Z" fill="url(#paint10_linear_58_2278)"/>
<path d="M18.5025 41.4624C18.5025 41.9878 15.2208 42.4136 11.1727 42.4136C7.12452 42.4136 3.84277 41.9878 3.84277 41.4624C3.84277 40.9371 7.12452 40.5112 11.1727 40.5112C15.2208 40.5112 18.5025 40.9371 18.5025 41.4624Z" fill="#FFDB44"/>
<path d="M11.1728 42.4795C7.58759 42.4795 3.83862 42.137 3.83862 41.4765C3.83862 41.4403 3.85165 41.3765 3.88786 41.3765C3.92407 41.3765 3.90855 41.4264 3.90855 41.4626C3.90855 41.8815 6.89185 42.3482 11.1728 42.3482C15.4537 42.3482 18.437 41.8815 18.437 41.4626C18.437 41.4264 18.4433 41.3923 18.4795 41.3923C18.5157 41.3923 18.5069 41.4407 18.5069 41.4771C18.5069 42.1375 14.758 42.4795 11.1728 42.4795Z" fill="#FFDB44"/>
<path d="M10.4801 41.5155C10.552 41.4658 10.6285 41.4167 10.7104 41.3682C10.7916 41.3198 10.8972 41.276 11.0253 41.2369C11.1541 41.1978 11.3151 41.1661 11.5084 41.1413C11.7017 41.1166 11.9435 41.1036 12.2321 41.1022C12.5154 41.1008 12.781 41.1099 13.0299 41.1291C13.278 41.1484 13.4969 41.1775 13.686 41.216C13.8742 41.2545 14.028 41.3022 14.1466 41.3589C14.2644 41.4156 14.3345 41.4808 14.3571 41.5541L15.1824 41.5625C15.2423 41.5628 15.2953 41.5676 15.3406 41.5771C15.3867 41.5865 15.4091 41.5983 15.4091 41.6128L15.4095 41.6807L14.3484 41.6706C14.3111 41.7539 14.2164 41.8299 14.0639 41.8989C13.9122 41.9679 13.7183 42.0279 13.4821 42.0784L13.0957 42.0247C13.0611 42.0193 13.0327 42.0127 13.0104 42.0045C12.9881 41.9965 12.9774 41.9876 12.9773 41.9779C12.9773 41.9649 13.007 41.9499 13.0668 41.9333C13.1266 41.9166 13.194 41.8957 13.2691 41.8711C13.3442 41.8465 13.4179 41.8172 13.4905 41.7835C13.5626 41.7498 13.6107 41.7096 13.6357 41.6629L11.1312 41.6381C11.0654 41.6864 10.9912 41.7341 10.91 41.7808C10.8281 41.8275 10.72 41.8697 10.5852 41.9069C10.4503 41.9442 10.2822 41.9745 10.0812 41.9979C9.87943 42.0211 9.62682 42.0336 9.32141 42.035C9.09182 42.0361 8.86847 42.0274 8.64958 42.009C8.43069 41.9904 8.23624 41.9628 8.0664 41.9258C7.89657 41.8889 7.75743 41.8432 7.64807 41.7888C7.53961 41.7344 7.47859 41.672 7.46593 41.6013L6.78642 41.5944C6.72648 41.594 6.6735 41.5894 6.62587 41.5803C6.57895 41.5712 6.55504 41.5592 6.55504 41.5441L6.55469 41.4761L7.48359 41.485C7.52462 41.4135 7.60882 41.3511 7.73762 41.2979C7.86625 41.2447 8.02341 41.1975 8.20912 41.1561L8.52024 41.1987C8.61479 41.2121 8.66171 41.2276 8.66171 41.2454C8.66171 41.2551 8.64262 41.267 8.60355 41.2813C8.56377 41.2956 8.51774 41.3127 8.46405 41.3325C8.41124 41.3523 8.35915 41.3757 8.30938 41.4023C8.25889 41.4288 8.22143 41.459 8.19628 41.4929L10.4795 41.5155H10.4801ZM8.18807 41.6081C8.2068 41.6527 8.24837 41.6911 8.31152 41.7234C8.37467 41.7557 8.45299 41.7822 8.54753 41.8031C8.64208 41.824 8.74805 41.8391 8.86561 41.849C8.98389 41.8586 9.10752 41.8632 9.2365 41.8627C9.38688 41.862 9.51818 41.8554 9.63021 41.8432C9.74153 41.8309 9.83965 41.8143 9.92474 41.7933C10.0091 41.7722 10.0835 41.748 10.1463 41.7202C10.2091 41.6923 10.2649 41.6622 10.3156 41.6297L8.18825 41.6083L8.18807 41.6081ZM13.64 41.5473C13.6214 41.5022 13.5758 41.4626 13.5051 41.4285C13.4343 41.3946 13.3435 41.3659 13.2336 41.3429C13.1237 41.3197 12.9954 41.3025 12.8486 41.2913C12.7027 41.2801 12.5414 41.2747 12.3648 41.2756C12.2082 41.2763 12.0724 41.2834 11.9595 41.2966C11.8468 41.31 11.7485 41.3277 11.665 41.3502C11.5822 41.3725 11.5108 41.3987 11.4534 41.4283C11.3952 41.4581 11.3408 41.49 11.2911 41.5239L13.6396 41.5473H13.64Z" fill="#FFDB44"/>
<path d="M11.1738 40.6143C7.90559 40.6143 4.50253 40.9018 3.95825 41.4586C3.97948 41.4782 3.99928 41.4993 4.01766 41.5212C4.47649 41.1346 7.28638 40.7456 11.1738 40.7456C15.0612 40.7456 18.0159 41.155 18.3617 41.551C18.3786 41.5292 18.3968 41.5085 18.4164 41.4889C17.9669 40.9125 14.5 40.6143 11.1736 40.6143H11.1738Z" fill="#FFDB44"/>
<path d="M1.80518 39.7549V41.3808C1.80518 41.9061 5.08692 42.332 9.13505 42.332C13.1832 42.332 16.4649 41.9061 16.4649 41.3808V39.7549H1.80518Z" fill="url(#paint11_linear_58_2278)"/>
<path d="M9.1353 40.7061C13.1835 40.7061 16.4652 40.2802 16.4652 39.7549C16.4652 39.2296 13.1835 38.8037 9.1353 38.8037C5.08712 38.8037 1.80542 39.2296 1.80542 39.7549C1.80542 40.2802 5.08712 40.7061 9.1353 40.7061Z" fill="#FFDB44"/>
<path d="M9.13494 40.7715C5.54974 40.7715 1.80078 40.429 1.80078 39.7685C1.80078 39.7323 1.8138 39.6685 1.85002 39.6685C1.88623 39.6685 1.87071 39.7182 1.87071 39.7546C1.87071 40.1735 4.85401 40.6402 9.13494 40.6402C13.4159 40.6402 16.3992 40.1735 16.3992 39.7546C16.3992 39.7184 16.4054 39.6843 16.4416 39.6843C16.4778 39.6843 16.4691 39.7327 16.4691 39.7691C16.4691 40.4295 12.7201 40.7715 9.13494 40.7715Z" fill="#FFDB44"/>
<path d="M8.44237 39.808C8.51427 39.7582 8.5908 39.7092 8.67268 39.6607C8.75385 39.6123 8.85946 39.5684 8.98755 39.5294C9.11635 39.4903 9.27744 39.4585 9.47082 39.4337C9.6642 39.4091 9.90592 39.3961 10.1946 39.3947C10.4779 39.3932 10.7435 39.4023 10.9923 39.4216C11.2405 39.4409 11.4594 39.47 11.6485 39.5085C11.8369 39.547 11.9905 39.5947 12.1091 39.6514C12.2268 39.7081 12.2969 39.7732 12.3196 39.8466L13.1449 39.8549C13.2048 39.8553 13.2578 39.8601 13.3031 39.8696C13.3493 39.879 13.3716 39.8908 13.3716 39.9052L13.372 39.9732L12.3109 39.963C12.2736 40.0464 12.1788 40.1223 12.0263 40.1914C11.8747 40.2604 11.6808 40.3204 11.4446 40.3709L11.0582 40.3172C11.0236 40.3118 10.9952 40.3052 10.9729 40.297C10.9506 40.289 10.9397 40.2801 10.9397 40.2704C10.9397 40.2574 10.9695 40.2424 11.0293 40.2256C11.089 40.2089 11.1565 40.188 11.2316 40.1634C11.3067 40.1388 11.3802 40.1095 11.453 40.0758C11.525 40.0421 11.5732 40.0019 11.5982 39.9552L9.09387 39.9304C9.02804 39.9787 8.95383 40.0264 8.87266 40.0731C8.79078 40.1199 8.68267 40.162 8.5478 40.1992C8.41294 40.2365 8.24489 40.2668 8.04384 40.2902C7.84208 40.3136 7.58947 40.3259 7.28406 40.3273C7.05446 40.3284 6.83111 40.3198 6.61222 40.3013C6.39333 40.2827 6.19906 40.2551 6.02905 40.2181C5.85922 40.1812 5.72007 40.1355 5.61071 40.0811C5.50225 40.0267 5.44124 39.9643 5.42857 39.8936L4.74907 39.8867C4.68913 39.8863 4.63614 39.8817 4.58851 39.8726C4.5416 39.8635 4.51787 39.8515 4.51769 39.8364L4.51733 39.7684L5.44624 39.7773C5.48727 39.7058 5.57147 39.6434 5.70027 39.5902C5.82889 39.537 5.98606 39.4898 6.17177 39.4484L6.48289 39.491C6.57744 39.5042 6.62435 39.5197 6.62435 39.5376C6.62435 39.5472 6.60526 39.5592 6.5662 39.5734C6.52641 39.5877 6.48039 39.6048 6.42669 39.6246C6.37389 39.6444 6.3218 39.6676 6.27202 39.6944C6.22154 39.721 6.18407 39.7513 6.15892 39.785L8.44219 39.8078L8.44237 39.808ZM6.15036 39.9006C6.16909 39.9452 6.21066 39.9836 6.27381 40.0158C6.33696 40.0481 6.41527 40.0747 6.50982 40.0956C6.60437 40.1165 6.71034 40.1316 6.8279 40.1414C6.94618 40.1513 7.0698 40.1557 7.19878 40.1552C7.34917 40.1545 7.48047 40.1479 7.5925 40.1357C7.70382 40.1234 7.80194 40.1068 7.88703 40.0858C7.97141 40.0647 8.04562 40.0405 8.1086 40.0126C8.17139 39.9848 8.22723 39.9547 8.27789 39.9222L6.15036 39.9008V39.9006ZM11.6023 39.8398C11.5835 39.7946 11.5381 39.755 11.4674 39.721C11.3966 39.6871 11.306 39.6583 11.1959 39.6353C11.086 39.6121 10.9577 39.595 10.8111 39.5836C10.6652 39.5724 10.5039 39.5672 10.3273 39.5679C10.1707 39.5686 10.0349 39.5757 9.92198 39.589C9.80923 39.6023 9.71094 39.62 9.62745 39.6425C9.54467 39.6648 9.47332 39.691 9.41587 39.7206C9.35772 39.7504 9.30331 39.7822 9.25353 39.8162L11.6021 39.8396L11.6023 39.8398Z" fill="#FFDB44"/>
<path d="M9.13618 38.9067C5.86799 38.9067 2.46494 39.1943 1.92065 39.7511C1.94188 39.7707 1.96169 39.7918 1.98006 39.8137C2.43889 39.4271 5.24879 39.038 9.13618 39.038C13.0236 39.038 15.9783 39.4475 16.3241 39.8435C16.341 39.8217 16.3592 39.801 16.3788 39.7814C15.9293 39.205 12.4624 38.9067 9.136 38.9067H9.13618Z" fill="url(#paint12_linear_58_2278)"/>
<path d="M3.56348 38.0518V39.6775C3.56348 40.2028 6.84523 40.6287 10.8934 40.6287C14.9415 40.6287 18.2232 40.2028 18.2232 39.6775V38.0518H3.56348Z" fill="#FFDB44"/>
<path d="M10.8934 39.003C14.9415 39.003 18.2232 38.5771 18.2232 38.0518C18.2232 37.5265 14.9415 37.1006 10.8934 37.1006C6.84518 37.1006 3.56348 37.5265 3.56348 38.0518C3.56348 38.5771 6.84518 39.003 10.8934 39.003Z" fill="url(#paint13_linear_58_2278)"/>
<path d="M10.8935 39.0683C7.30829 39.0683 3.55933 38.7258 3.55933 38.0654C3.55933 38.0292 3.57235 37.9653 3.60856 37.9653C3.64478 37.9653 3.62926 38.0153 3.62926 38.0515C3.62926 38.4704 6.61255 38.9371 10.8935 38.9371C15.1744 38.9371 18.1577 38.4704 18.1577 38.0515C18.1577 38.0153 18.164 37.9812 18.2002 37.9812C18.2364 37.9812 18.2276 38.0296 18.2276 38.0659C18.2276 38.7264 14.4787 39.0683 10.8935 39.0683Z" fill="#FFDB44"/>
<path d="M10.2006 38.1049C10.2725 38.0551 10.349 38.0061 10.4309 37.9575C10.5121 37.9092 10.6177 37.8653 10.7458 37.8262C10.8746 37.7872 11.0357 37.7554 11.2291 37.7306C11.4224 37.706 11.6642 37.693 11.9528 37.6916C12.2361 37.6901 12.5017 37.6992 12.7506 37.7185C12.9987 37.7378 13.2176 37.7668 13.4067 37.8054C13.5951 37.8439 13.7487 37.8915 13.8673 37.9483C13.9851 38.005 14.0552 38.0701 14.0778 38.1434L14.9031 38.1518C14.963 38.1522 15.016 38.157 15.0613 38.1664C15.1075 38.1759 15.1298 38.1877 15.1298 38.2021L15.1302 38.2701L14.0691 38.2599C14.0318 38.3432 13.9371 38.4192 13.7846 38.4883C13.6329 38.5573 13.439 38.6172 13.2028 38.6677L12.8164 38.614C12.7818 38.6087 12.7534 38.6021 12.7311 38.5939C12.7088 38.5858 12.698 38.5769 12.698 38.5673C12.698 38.5543 12.7277 38.5393 12.7875 38.5225C12.8473 38.5057 12.9147 38.4849 12.9898 38.4603C13.0649 38.4356 13.1384 38.4064 13.2112 38.3727C13.2833 38.3389 13.3314 38.2988 13.3564 38.2521L10.8519 38.2273C10.7861 38.2756 10.7119 38.3232 10.6307 38.37C10.5488 38.4167 10.4407 38.4588 10.3059 38.4961C10.171 38.5334 10.0029 38.5637 9.8019 38.5871C9.60013 38.6105 9.34752 38.6228 9.04211 38.6242C8.81252 38.6253 8.58917 38.6165 8.37028 38.5982C8.15139 38.5796 7.95694 38.5519 7.78711 38.515C7.61728 38.4781 7.47813 38.4324 7.36877 38.378C7.26031 38.3236 7.1993 38.2612 7.18663 38.1905L6.50713 38.1836C6.44718 38.1832 6.3942 38.1786 6.34657 38.1695C6.29965 38.1604 6.27575 38.1484 6.27575 38.1333L6.27539 38.0653L7.20447 38.0742C7.2455 38.0027 7.3297 37.9402 7.4585 37.8871C7.58713 37.8339 7.74429 37.7866 7.93 37.7452L8.24112 37.7879C8.33567 37.8011 8.38259 37.8166 8.38259 37.8346C8.38259 37.8443 8.3635 37.8562 8.32443 37.8705C8.28465 37.8848 8.23862 37.9019 8.18493 37.9217C8.13212 37.9415 8.08003 37.9649 8.03026 37.9914C7.97977 38.018 7.94231 38.0483 7.91716 38.0821L10.2004 38.1047L10.2006 38.1049ZM7.90859 38.1975C7.92733 38.2421 7.96889 38.2804 8.03204 38.3127C8.09519 38.3452 8.17351 38.3716 8.26806 38.3925C8.36261 38.4133 8.46857 38.4285 8.58614 38.4383C8.70441 38.4481 8.82804 38.4526 8.95702 38.452C9.10741 38.4513 9.2387 38.4447 9.35074 38.4326C9.46205 38.4203 9.56017 38.4037 9.64527 38.3827C9.72965 38.3616 9.80404 38.3373 9.86683 38.3095C9.92963 38.2817 9.98546 38.2515 10.0361 38.2191L7.90877 38.1977L7.90859 38.1975ZM13.3605 38.1366C13.342 38.0915 13.2965 38.0519 13.2256 38.0178C13.1548 37.9839 13.064 37.9552 12.9541 37.9322C12.8442 37.909 12.716 37.8919 12.5693 37.8805C12.4234 37.8692 12.2621 37.8641 12.0855 37.8648C11.9289 37.8655 11.7931 37.8726 11.6802 37.8858C11.5675 37.8992 11.4692 37.9169 11.3857 37.9393C11.3029 37.9616 11.2316 37.9879 11.1741 38.0175C11.116 38.0473 11.0615 38.0792 11.0118 38.1131L13.3603 38.1365L13.3605 38.1366Z" fill="#FFDB44"/>
<path d="M10.8942 37.2036C7.62605 37.2036 4.22299 37.4912 3.67871 38.048C3.69994 38.0676 3.71974 38.0886 3.73812 38.1106C4.19695 37.724 7.00684 37.3349 10.8942 37.3349C14.7816 37.3349 17.7364 37.7443 18.0821 38.1404C18.0991 38.1186 18.1173 38.0979 18.1369 38.0783C17.6873 37.5019 14.2204 37.2036 10.8941 37.2036H10.8942Z" fill="url(#paint14_linear_58_2278)"/>
<path d="M2.64893 36.3442V37.9699C2.64893 38.4953 5.93067 38.9211 9.97881 38.9211C14.0269 38.9211 17.3087 38.4953 17.3087 37.9699V36.3442H2.64893Z" fill="url(#paint15_linear_58_2278)"/>
<path d="M9.97856 37.2955C14.0267 37.2955 17.3084 36.8696 17.3084 36.3443C17.3084 35.8189 14.0267 35.3931 9.97856 35.3931C5.93038 35.3931 2.64868 35.8189 2.64868 36.3443C2.64868 36.8696 5.93038 37.2955 9.97856 37.2955Z" fill="#FFDB44"/>
<path d="M9.97845 37.3608C6.39325 37.3608 2.64429 37.0183 2.64429 36.3579C2.64429 36.3217 2.65731 36.2578 2.69352 36.2578C2.72974 36.2578 2.71422 36.3076 2.71422 36.344C2.71422 36.7628 5.69751 37.2295 9.97845 37.2295C14.2594 37.2295 17.2427 36.7628 17.2427 36.344C17.2427 36.3078 17.2489 36.2737 17.2851 36.2737C17.3214 36.2737 17.3126 36.322 17.3126 36.3584C17.3126 37.0188 13.5636 37.3608 9.97845 37.3608Z" fill="#FFDB44"/>
<path d="M9.28612 36.3974C9.35802 36.3476 9.43455 36.2985 9.51643 36.25C9.5976 36.2017 9.70339 36.1578 9.8313 36.1187C9.9601 36.0797 10.1212 36.0479 10.3146 36.0231C10.5079 35.9985 10.7497 35.9855 11.0383 35.984C11.3216 35.9826 11.5872 35.9917 11.8361 36.011C12.0842 36.0302 12.3031 36.0593 12.4922 36.0978C12.6806 36.1364 12.8342 36.184 12.9528 36.2407C13.0706 36.2976 13.1407 36.3626 13.1634 36.4359L13.9886 36.4443C14.0485 36.4446 14.1015 36.4495 14.1468 36.4589C14.193 36.4684 14.2153 36.4801 14.2153 36.4946L14.2157 36.5626L13.1546 36.5524C13.1173 36.6355 13.0226 36.7117 12.8701 36.7807C12.7184 36.8498 12.5245 36.9097 12.2883 36.9602L11.9019 36.9065C11.8673 36.9012 11.839 36.8946 11.8167 36.8863C11.7944 36.8783 11.7835 36.8694 11.7835 36.8598C11.7835 36.8467 11.8133 36.8318 11.873 36.815C11.9328 36.7982 12.0002 36.7774 12.0753 36.7527C12.1504 36.7281 12.2239 36.6989 12.2967 36.6651C12.3688 36.6314 12.417 36.5913 12.4419 36.5445L9.93762 36.5198C9.87179 36.5681 9.79758 36.6157 9.71641 36.6625C9.63453 36.7092 9.52642 36.7513 9.39155 36.7886C9.25669 36.8259 9.08864 36.8562 8.88759 36.8796C8.68583 36.9028 8.43322 36.9153 8.12781 36.9167C7.89821 36.9178 7.67486 36.9092 7.45597 36.8906C7.23708 36.8721 7.04263 36.8444 6.8728 36.8075C6.70297 36.7706 6.56382 36.7249 6.45446 36.6705C6.346 36.6161 6.28499 36.5536 6.27232 36.483L5.59282 36.476C5.53288 36.4757 5.47989 36.4711 5.43226 36.462C5.38535 36.4529 5.36162 36.4409 5.36144 36.4257L5.36108 36.3578L6.29016 36.3667C6.33119 36.2952 6.4154 36.2327 6.5442 36.1796C6.67282 36.1264 6.82999 36.0791 7.01569 36.0377L7.32681 36.0804C7.42136 36.0936 7.46828 36.1091 7.46828 36.1269C7.46828 36.1366 7.44919 36.1485 7.41012 36.1628C7.37034 36.1771 7.32432 36.1942 7.27062 36.214C7.21782 36.2338 7.16572 36.2572 7.11595 36.2837C7.06547 36.3103 7.028 36.3405 7.00285 36.3744L9.28612 36.397V36.3974ZM6.99411 36.49C7.01284 36.5346 7.05441 36.5729 7.11756 36.6052C7.18071 36.6375 7.25902 36.6641 7.35357 36.6849C7.44812 36.7058 7.55409 36.721 7.67165 36.7308C7.78993 36.7406 7.91355 36.7451 8.04253 36.7445C8.1931 36.7438 8.32422 36.7372 8.43625 36.7251C8.54757 36.7128 8.64569 36.6962 8.73078 36.6751C8.81516 36.6541 8.88937 36.6298 8.95235 36.602C9.01514 36.5742 9.07098 36.544 9.12164 36.5115L6.99411 36.4901V36.49ZM12.446 36.4291C12.4275 36.384 12.382 36.3444 12.3112 36.3103C12.2403 36.2764 12.1497 36.2477 12.0396 36.2247C11.9298 36.2015 11.8015 36.1844 11.6548 36.1729C11.5089 36.1617 11.3477 36.1565 11.171 36.1573C11.0144 36.158 10.8787 36.1651 10.7657 36.1783C10.653 36.1915 10.5547 36.2093 10.4712 36.2318C10.3884 36.2541 10.3171 36.2803 10.2596 36.31C10.2015 36.3398 10.1471 36.3717 10.0973 36.4056L12.4458 36.4289L12.446 36.4291Z" fill="#FFDB44"/>
<path d="M9.97969 35.4961C6.7115 35.4961 3.30844 35.7837 2.76416 36.3404C2.78539 36.3601 2.80519 36.3811 2.82357 36.4031C3.2824 36.0165 6.09229 35.6274 9.97969 35.6274C13.8671 35.6274 16.8218 36.0368 17.1676 36.4328C17.1845 36.4111 17.2027 36.3904 17.2223 36.3708C16.7728 35.7944 13.3059 35.4961 9.97951 35.4961H9.97969Z" fill="url(#paint16_linear_58_2278)"/>
<path d="M19.3935 37.4904L18.0687 38.4327C17.6405 38.7372 19.1958 41.6582 21.5422 44.9569C23.8886 48.2558 26.1378 50.6831 26.566 50.3785L27.8908 49.4363L19.3936 37.4902L19.3935 37.4904Z" fill="url(#paint17_linear_58_2278)"/>
<path d="M27.8907 49.4365C27.4625 49.741 25.2133 47.3136 22.8669 44.0149C20.5205 40.716 18.9654 37.7952 19.3934 37.4906C19.8215 37.1861 22.0707 39.6135 24.4171 42.9122C26.7636 46.2111 28.3186 49.1321 27.8907 49.4365Z" fill="url(#paint18_linear_58_2278)"/>
<path d="M22.8135 44.0527C20.7354 41.1312 18.8415 37.8778 19.3797 37.4949C19.4094 37.4739 19.4688 37.4475 19.4898 37.4771C19.5109 37.5067 19.4611 37.5228 19.4317 37.5438C19.0904 37.7866 20.4392 40.4882 22.9205 43.9766C25.4018 47.4651 27.5113 49.6256 27.8528 49.3828C27.8824 49.3617 27.9136 49.3471 27.9347 49.3767C27.9557 49.4064 27.9111 49.4272 27.8817 49.4483C27.3435 49.8311 24.8918 46.9743 22.8137 44.0527H22.8135Z" fill="url(#paint19_linear_58_2278)"/>
<path d="M23.1974 42.9294C23.2796 42.9592 23.364 42.9931 23.4509 43.0316C23.5374 43.0696 23.6343 43.1305 23.7404 43.2122C23.8469 43.2944 23.9663 43.4073 24.0983 43.5506C24.2305 43.6938 24.3812 43.8833 24.5496 44.1177C24.715 44.3476 24.8617 44.5694 24.9901 44.7835C25.1182 44.9968 25.2215 45.192 25.2996 45.3684C25.3774 45.5441 25.4275 45.6972 25.4502 45.8265C25.4721 45.9553 25.4598 46.0502 25.4133 46.1113L25.8847 46.7886C25.9192 46.8377 25.9459 46.8837 25.9645 46.926C25.9836 46.969 25.9868 46.9941 25.975 47.0025L25.9199 47.0421L25.3132 46.1716C25.2238 46.1894 25.1068 46.1564 24.9621 46.0722C24.8179 45.9887 24.6567 45.8653 24.4786 45.7022L24.2985 45.3561C24.2828 45.3249 24.2717 45.2978 24.2655 45.2749C24.2592 45.2521 24.2601 45.2382 24.268 45.2325C24.2787 45.2248 24.3081 45.2405 24.3563 45.2796C24.4046 45.3185 24.4606 45.3615 24.5243 45.4084C24.588 45.4553 24.6544 45.4983 24.7239 45.5381C24.793 45.5773 24.8538 45.5932 24.9064 45.5866L23.475 43.5315C23.3974 43.506 23.3157 43.473 23.2306 43.4339C23.145 43.3943 23.0481 43.3306 22.9395 43.2423C22.8308 43.154 22.7088 43.0347 22.5732 42.8845C22.4373 42.7335 22.2808 42.535 22.1024 42.2868C21.9684 42.1004 21.8461 41.9133 21.7342 41.7242C21.6224 41.5351 21.5325 41.3606 21.464 41.2008C21.3956 41.0409 21.3521 40.9011 21.333 40.7805C21.3145 40.6604 21.33 40.5746 21.3803 40.5234L20.9921 39.9657C20.9577 39.9167 20.9307 39.8708 20.9106 39.8268C20.8908 39.7832 20.8868 39.7568 20.899 39.7481L20.9541 39.7085L21.4854 40.4706C21.5676 40.4626 21.6671 40.495 21.7851 40.5691C21.903 40.6431 22.0327 40.7437 22.174 40.8711L22.3195 41.1494C22.3634 41.2341 22.378 41.2812 22.3636 41.2917C22.3557 41.2973 22.335 41.2887 22.3006 41.2652C22.2658 41.2409 22.2253 41.2134 22.1781 41.1811C22.1311 41.1496 22.0821 41.1205 22.0314 41.0955C21.9804 41.0698 21.934 41.0568 21.8919 41.0559L23.1969 42.9298L23.1974 42.9294ZM21.7934 41.1155C21.7679 41.1565 21.7608 41.2127 21.7711 41.2828C21.7813 41.3529 21.8052 41.4323 21.843 41.5213C21.8809 41.6104 21.9299 41.7056 21.99 41.8071C22.0507 41.9092 22.1185 42.0126 22.1939 42.1174C22.2817 42.2396 22.3631 42.3427 22.438 42.4269C22.5126 42.5104 22.5828 42.5808 22.6494 42.6379C22.7154 42.6945 22.7784 42.741 22.8374 42.776C22.8965 42.8111 22.9534 42.8391 23.0092 42.8614L21.7936 41.1153L21.7934 41.1155ZM25.0031 45.5229C25.0292 45.4815 25.0351 45.4216 25.0217 45.3442C25.0083 45.2667 24.979 45.1763 24.9341 45.0734C24.8893 44.9704 24.829 44.8559 24.7532 44.7298C24.6777 44.6044 24.5885 44.4698 24.4856 44.3264C24.3943 44.1992 24.3097 44.0925 24.2335 44.0083C24.1574 43.9241 24.086 43.8544 24.0193 43.7993C23.9531 43.7447 23.8905 43.7019 23.833 43.6722C23.7751 43.6421 23.7176 43.6162 23.6611 43.5954L25.0033 45.5227L25.0031 45.5229Z" fill="#FFDB44"/>
<path d="M24.334 42.9724C22.4396 40.3092 20.2329 37.7028 19.4636 37.582C19.46 37.6108 19.4543 37.6391 19.447 37.6668C20.0279 37.8166 21.9738 39.8808 24.2269 43.0486C26.538 46.2977 27.8592 48.8614 27.7368 49.3729C27.7643 49.3741 27.7918 49.3768 27.8193 49.3816C28.0283 48.681 26.2619 45.6831 24.334 42.9726V42.9724Z" fill="#FFDB44"/>
<defs>
<linearGradient id="paint0_linear_58_2278" x1="-4.72264" y1="91.5518" x2="25.3196" y2="34.1218" gradientUnits="userSpaceOnUse">
<stop stop-color="#AA80F9"/>
<stop offset="1" stop-color="#6165D7"/>
</linearGradient>
<linearGradient id="paint1_linear_58_2278" x1="12.6574" y1="29.3444" x2="32.9455" y2="1.5395" gradientUnits="userSpaceOnUse">
<stop stop-color="#FCB148"/>
<stop offset="0.05" stop-color="#FDB946"/>
<stop offset="0.14" stop-color="#FEC144"/>
<stop offset="0.32" stop-color="#FFC444"/>
<stop offset="0.48" stop-color="#FDB946"/>
<stop offset="0.78" stop-color="#F99C4C"/>
<stop offset="0.87" stop-color="#F8924F"/>
<stop offset="1" stop-color="#F8924F"/>
</linearGradient>
<linearGradient id="paint2_linear_58_2278" x1="29.1451" y1="15.9757" x2="36.6448" y2="5.69727" gradientUnits="userSpaceOnUse">
<stop stop-color="#FCB148"/>
<stop offset="0.05" stop-color="#FDB946"/>
<stop offset="0.14" stop-color="#FEC144"/>
<stop offset="0.32" stop-color="#FFC444"/>
<stop offset="0.48" stop-color="#FDB946"/>
<stop offset="0.78" stop-color="#F99C4C"/>
<stop offset="0.87" stop-color="#F8924F"/>
<stop offset="1" stop-color="#F8924F"/>
</linearGradient>
<linearGradient id="paint3_linear_58_2278" x1="2.58955" y1="49.7114" x2="19.4548" y2="49.7114" gradientUnits="userSpaceOnUse">
<stop stop-color="#FCB148"/>
<stop offset="0.05" stop-color="#FDB946"/>
<stop offset="0.14" stop-color="#FEC144"/>
<stop offset="0.32" stop-color="#FFC444"/>
<stop offset="0.48" stop-color="#FDB946"/>
<stop offset="0.78" stop-color="#F99C4C"/>
<stop offset="0.87" stop-color="#F8924F"/>
<stop offset="1" stop-color="#F8924F"/>
</linearGradient>
<linearGradient id="paint4_linear_58_2278" x1="11.0611" y1="47.4799" x2="11.3342" y2="49.7657" gradientUnits="userSpaceOnUse">
<stop stop-color="#FFDB44"/>
<stop offset="1" stop-color="#FEEF06"/>
</linearGradient>
<linearGradient id="paint5_linear_58_2278" x1="2.31025" y1="46.3011" x2="19.1753" y2="46.3011" gradientUnits="userSpaceOnUse">
<stop stop-color="#FCB148"/>
<stop offset="0.05" stop-color="#FDB946"/>
<stop offset="0.14" stop-color="#FEC144"/>
<stop offset="0.32" stop-color="#FFC444"/>
<stop offset="0.48" stop-color="#FDB946"/>
<stop offset="0.78" stop-color="#F99C4C"/>
<stop offset="0.87" stop-color="#F8924F"/>
<stop offset="1" stop-color="#F8924F"/>
</linearGradient>
<linearGradient id="paint6_linear_58_2278" x1="11.0384" y1="46.1153" x2="10.7663" y2="43.8374" gradientUnits="userSpaceOnUse">
<stop stop-color="#F36F56"/>
<stop offset="0.31" stop-color="#F99C4C"/>
<stop offset="0.55" stop-color="#FDB946"/>
<stop offset="0.68" stop-color="#FFC444"/>
<stop offset="0.8" stop-color="#FEC144"/>
<stop offset="0.87" stop-color="#FDB946"/>
<stop offset="0.92" stop-color="#FBAC49"/>
<stop offset="0.96" stop-color="#F8994D"/>
<stop offset="1" stop-color="#F57E53"/>
</linearGradient>
<linearGradient id="paint7_linear_58_2278" x1="11.8866" y1="42.6934" x2="12.7757" y2="50.1365" gradientUnits="userSpaceOnUse">
<stop stop-color="#FFDB44"/>
<stop offset="1" stop-color="#FEEF06"/>
</linearGradient>
<linearGradient id="paint8_linear_58_2278" x1="11.8484" y1="42.3617" x2="12.1213" y2="44.6477" gradientUnits="userSpaceOnUse">
<stop stop-color="#FFDB44"/>
<stop offset="1" stop-color="#FEEF06"/>
</linearGradient>
<linearGradient id="paint9_linear_58_2278" x1="12.105" y1="44.4078" x2="11.8328" y2="42.1301" gradientUnits="userSpaceOnUse">
<stop stop-color="#F36F56"/>
<stop offset="0.31" stop-color="#F99C4C"/>
<stop offset="0.55" stop-color="#FDB946"/>
<stop offset="0.68" stop-color="#FFC444"/>
<stop offset="0.8" stop-color="#FEC144"/>
<stop offset="0.87" stop-color="#FDB946"/>
<stop offset="0.92" stop-color="#FBAC49"/>
<stop offset="0.96" stop-color="#F8994D"/>
<stop offset="1" stop-color="#F57E53"/>
</linearGradient>
<linearGradient id="paint10_linear_58_2278" x1="2.58955" y1="42.7509" x2="19.4548" y2="42.7509" gradientUnits="userSpaceOnUse">
<stop stop-color="#FCB148"/>
<stop offset="0.05" stop-color="#FDB946"/>
<stop offset="0.14" stop-color="#FEC144"/>
<stop offset="0.32" stop-color="#FFC444"/>
<stop offset="0.48" stop-color="#FDB946"/>
<stop offset="0.78" stop-color="#F99C4C"/>
<stop offset="0.87" stop-color="#F8924F"/>
<stop offset="1" stop-color="#F8924F"/>
</linearGradient>
<linearGradient id="paint11_linear_58_2278" x1="0.551954" y1="41.0432" x2="17.417" y2="41.0432" gradientUnits="userSpaceOnUse">
<stop stop-color="#FCB148"/>
<stop offset="0.05" stop-color="#FDB946"/>
<stop offset="0.14" stop-color="#FEC144"/>
<stop offset="0.32" stop-color="#FFC444"/>
<stop offset="0.48" stop-color="#FDB946"/>
<stop offset="0.78" stop-color="#F99C4C"/>
<stop offset="0.87" stop-color="#F8924F"/>
<stop offset="1" stop-color="#F8924F"/>
</linearGradient>
<linearGradient id="paint12_linear_58_2278" x1="9.28015" y1="40.858" x2="9.0081" y2="38.5801" gradientUnits="userSpaceOnUse">
<stop stop-color="#F36F56"/>
<stop offset="0.31" stop-color="#F99C4C"/>
<stop offset="0.55" stop-color="#FDB946"/>
<stop offset="0.68" stop-color="#FFC444"/>
<stop offset="0.8" stop-color="#FEC144"/>
<stop offset="0.87" stop-color="#FDB946"/>
<stop offset="0.92" stop-color="#FBAC49"/>
<stop offset="0.96" stop-color="#F8994D"/>
<stop offset="1" stop-color="#F57E53"/>
</linearGradient>
<linearGradient id="paint13_linear_58_2278" x1="10.8204" y1="37.4404" x2="11.7095" y2="44.8838" gradientUnits="userSpaceOnUse">
<stop stop-color="#FFDB44"/>
<stop offset="1" stop-color="#FEEF06"/>
</linearGradient>
<linearGradient id="paint14_linear_58_2278" x1="11.0384" y1="39.1549" x2="10.7663" y2="36.8772" gradientUnits="userSpaceOnUse">
<stop stop-color="#F36F56"/>
<stop offset="0.31" stop-color="#F99C4C"/>
<stop offset="0.55" stop-color="#FDB946"/>
<stop offset="0.68" stop-color="#FFC444"/>
<stop offset="0.8" stop-color="#FEC144"/>
<stop offset="0.87" stop-color="#FDB946"/>
<stop offset="0.92" stop-color="#FBAC49"/>
<stop offset="0.96" stop-color="#F8994D"/>
<stop offset="1" stop-color="#F57E53"/>
</linearGradient>
<linearGradient id="paint15_linear_58_2278" x1="1.39552" y1="37.6328" x2="18.2608" y2="37.6328" gradientUnits="userSpaceOnUse">
<stop stop-color="#FCB148"/>
<stop offset="0.05" stop-color="#FDB946"/>
<stop offset="0.14" stop-color="#FEC144"/>
<stop offset="0.32" stop-color="#FFC444"/>
<stop offset="0.48" stop-color="#FDB946"/>
<stop offset="0.78" stop-color="#F99C4C"/>
<stop offset="0.87" stop-color="#F8924F"/>
<stop offset="1" stop-color="#F8924F"/>
</linearGradient>
<linearGradient id="paint16_linear_58_2278" x1="10.1237" y1="37.4476" x2="9.8516" y2="35.1696" gradientUnits="userSpaceOnUse">
<stop stop-color="#F36F56"/>
<stop offset="0.31" stop-color="#F99C4C"/>
<stop offset="0.55" stop-color="#FDB946"/>
<stop offset="0.68" stop-color="#FFC444"/>
<stop offset="0.8" stop-color="#FEC144"/>
<stop offset="0.87" stop-color="#FDB946"/>
<stop offset="0.92" stop-color="#FBAC49"/>
<stop offset="0.96" stop-color="#F8994D"/>
<stop offset="1" stop-color="#F57E53"/>
</linearGradient>
<linearGradient id="paint17_linear_58_2278" x1="17.6153" y1="37.2152" x2="27.3898" y2="50.9591" gradientUnits="userSpaceOnUse">
<stop stop-color="#FCB148"/>
<stop offset="0.05" stop-color="#FDB946"/>
<stop offset="0.14" stop-color="#FEC144"/>
<stop offset="0.32" stop-color="#FFC444"/>
<stop offset="0.48" stop-color="#FDB946"/>
<stop offset="0.78" stop-color="#F99C4C"/>
<stop offset="0.87" stop-color="#F8924F"/>
<stop offset="1" stop-color="#F8924F"/>
</linearGradient>
<linearGradient id="paint18_linear_58_2278" x1="24.0956" y1="43.0495" x2="18.5459" y2="48.0872" gradientUnits="userSpaceOnUse">
<stop stop-color="#FFDB44"/>
<stop offset="1" stop-color="#FEEF06"/>
</linearGradient>
<linearGradient id="paint19_linear_58_2278" x1="24.3435" y1="42.8254" x2="22.6391" y2="44.3725" gradientUnits="userSpaceOnUse">
<stop stop-color="#FFDB44"/>
<stop offset="1" stop-color="#FEEF06"/>
</linearGradient>
</defs>
</svg>
